<?xml version="1.0" encoding="utf-8"?>
<!-- Generator: Adobe Illustrator 22.1.0, SVG Export Plug-In . SVG Version: 6.00 Build 0)  -->
<svg version="1.1" id="Capa_1" xmlns="http://www.w3.org/2000/svg" xmlns:xlink="http://www.w3.org/1999/xlink" x="0px" y="0px"
	 viewBox="0 0 30 30" style="enable-background:new 0 0 30 30;" xml:space="preserve">
<style type="text/css">
	.st0{fill:#8B8F93;}
</style>
<path class="st0" d="M26.7,1H3.3C2.1,1.1,1.1,2.1,1,3.3v23.4c0.1,1.2,1.1,2.2,2.3,2.3H12c2,0,1.9-1.5,1.9-1.5v-9.2
	c0-0.4-0.4-0.8-0.8-0.8H9.9v-2.2h3.2c0.4,0,0.8-0.4,0.8-0.8v-2.6c0-0.4,0-0.9,0.1-1.3c0.6-2,2.4-3.4,4.5-3.3h1.6v2.2h-1.2
	c-1.5,0.1-2.7,1.3-2.8,2.8v2.2c0,0.4,0.4,0.8,0.8,0.8h3.2v2.2h-3.2c-0.4,0-0.8,0.4-0.8,0.8v3.4c0.1,0.4,0.4,0.7,0.8,0.7
	c0.4,0,0.7-0.3,0.7-0.7v0V19h2.6c0.7,0.1,1.3-0.5,1.4-1.2c0,0,0-0.1,0-0.1v-2.6c0-0.7-0.6-1.3-1.3-1.3c0,0-0.1,0-0.1,0h-2.6v-1.5
	c0-0.7,0.6-1.3,1.3-1.3h1.3c0.7,0.1,1.3-0.5,1.4-1.2c0,0,0-0.1,0-0.1V7.1c0-0.7-0.6-1.3-1.3-1.3c0,0-0.1,0-0.1,0h-1.7
	c-1.5,0-3,0.5-4.1,1.5c-0.7,0.6-1.2,1.3-1.5,2.1c-0.3,0.8-0.5,1.6-0.5,2.4v1.9H9.8c-0.7-0.1-1.3,0.5-1.4,1.2c0,0,0,0.1,0,0.1v2.6
	c-0.1,0.7,0.5,1.3,1.2,1.4c0.1,0,0.1,0,0.2,0h2.6v8.5H3.3c-0.4,0-0.8-0.4-0.8-0.8V3.3c0-0.4,0.4-0.8,0.8-0.8h23.4
	c0.4,0,0.8,0.4,0.8,0.8v23.4c0,0.4-0.4,0.8-0.8,0.8h-9.1v-2.8c0-0.4-0.3-0.7-0.7-0.8c-0.4,0-0.8,0.4-0.8,0.8v2.8
	c0,0,0.1,1.5,1.5,1.5h9.1c1.2-0.1,2.2-1.1,2.3-2.3V3.3C28.9,2.1,27.9,1.1,26.7,1z"/>
</svg>
