<svg id="Capa_1" xmlns="http://www.w3.org/2000/svg" viewBox="0 0 1200 900"><style>.st0{fill:#313841}</style><path class="st0" d="M495.9 567c-1.7-1.9-4.1-3.1-6.6-3.1H481v-2.5c0-3.2-2.7-5.9-5.9-5.9h-56.3c-3.2 0-5.9 2.7-5.9 5.9v2.5h-8.3c-2.5 0-5 1.1-6.6 3.1-1.7 1.9-2.3 4.5-1.9 6.9 2.2 13.4 10.7 25.3 22.7 31.8 1.1 2.7 2.3 5.1 3.7 7.5 4.5 7.4 9.9 12.6 15.9 15 .6 6.2-3.6 12.1-9.7 13.5-1.3.3-2.2 1.3-2.2 2.5v12.6h-5.1c-4.6 0-8.3 3.7-8.3 8.3v6.5c0 1.5 1.3 2.8 2.8 2.8h62.3c1.5 0 2.8-1.3 2.8-2.8v-6.5c0-4.6-3.7-8.3-8.3-8.3h-5.1v-12.6c0-1.3-.9-2.4-2.2-2.7-6.2-1.4-10.3-7.4-9.7-13.6 6-2.5 11.3-7.6 15.7-14.9 1.4-2.3 2.7-4.8 3.7-7.5 12-6.5 20.5-18.3 22.7-31.8.4-2.3-.2-4.8-1.9-6.7zm-94.3 6c-.1-.9.1-1.8.6-2.4.6-.6 1.4-1.1 2.4-1.1h8.3v5.1c0 7.9 1 15.7 2.9 22.7-7.4-6.1-12.6-14.8-14.2-24.3zm71.1 89.5c1.5 0 2.8 1.3 2.8 2.8v3.8h-56.8v-3.8c0-1.5 1.3-2.8 2.8-2.8h51.2zm-10.5-15.4v9.9h-30.1v-9.9h30.1zm-22.9-5.5c.6-.8 1.3-1.5 1.9-2.4 1.8-2.9 2.8-6.1 2.8-9.4 1 .1 1.9.3 2.9.3 1.1 0 2.2-.1 3.2-.3 0 4.5 1.8 8.7 4.7 12l-15.5-.2zm36.2-67.1c0 13.6-3.1 26.2-8.8 35.8-5.4 9-12.4 14-19.7 14-7.4 0-14.4-5-19.7-14-5.6-9.6-8.8-22.3-8.8-35.8v-13.1c0-.1.1-.4.4-.4h56.4c.1 0 .4.1.4.4l-.2 13.1zm16.8-1.5c-1.5 9.6-6.8 18.2-14.3 24.2 1.9-7 2.9-14.8 2.9-22.7v-5.1h8.3c.9 0 1.8.4 2.4 1.1.7.7 1 1.6.7 2.5zm-32.4 6.6l-7.4-1-3.3-6.6c-.4-.9-1.3-1.4-2.2-1.4-.9 0-1.8.5-2.2 1.4l-3.3 6.6-7.4 1c-.9.1-1.7.8-1.9 1.7-.3.9 0 1.9.6 2.5l5.4 5.2-1.3 7.4c-.1.9.3 1.8 1 2.4.8.5 1.8.6 2.5.1l6.6-3.4 6.6 3.4c.4.1.8.3 1.1.3.5 0 1-.1 1.4-.5.8-.5 1.1-1.5 1-2.4l-1.3-7.4 5.4-5.2c.5-.6.8-1.7.4-2.4-.1-.9-.9-1.6-1.7-1.7zm-8.3 6.7c-.6.5-.9 1.4-.8 2.2l.6 3.7-3.3-1.8c-.4-.1-.8-.3-1.1-.3-.4 0-.8.1-1.1.3l-3.3 1.8.6-3.7c.1-.8-.1-1.7-.8-2.2l-2.7-2.7 3.7-.5c.8-.1 1.5-.6 1.8-1.3l1.7-3.4 1.7 3.4c.4.8 1 1.3 1.8 1.3l3.7.5-2.5 2.7zM1077.9 688c-1.7-1.9-4.1-3.1-6.6-3.1h-8.3v-2.5c0-3.2-2.7-5.9-5.9-5.9h-56.3c-3.2 0-5.9 2.7-5.9 5.9v2.5h-8.3c-2.5 0-5 1.1-6.6 3.1-1.7 1.9-2.3 4.5-1.9 6.9 2.2 13.4 10.7 25.3 22.7 31.8 1.1 2.7 2.3 5.1 3.7 7.5 4.5 7.4 9.9 12.6 15.9 15 .6 6.2-3.6 12.1-9.7 13.5-1.3.3-2.2 1.3-2.2 2.5v12.6h-5.1c-4.6 0-8.3 3.7-8.3 8.3v6.5c0 1.5 1.3 2.8 2.8 2.8h62.3c1.5 0 2.8-1.3 2.8-2.8v-6.5c0-4.6-3.7-8.3-8.3-8.3h-5.1v-12.6c0-1.3-.9-2.4-2.2-2.7-6.2-1.4-10.3-7.4-9.7-13.6 6-2.5 11.3-7.6 15.7-14.9 1.4-2.3 2.7-4.8 3.7-7.5 12-6.5 20.5-18.3 22.7-31.8.4-2.3-.2-4.8-1.9-6.7zm-94.3 6c-.1-.9.1-1.8.6-2.4.6-.6 1.4-1.1 2.4-1.1h8.3v5.1c0 7.9 1 15.7 2.9 22.7-7.4-6.1-12.6-14.8-14.2-24.3zm71.1 89.5c1.5 0 2.8 1.3 2.8 2.8v3.8h-56.8v-3.8c0-1.5 1.3-2.8 2.8-2.8h51.2zm-10.5-15.4v9.9h-30.1v-9.9h30.1zm-22.9-5.5c.6-.8 1.3-1.5 1.9-2.4 1.8-2.9 2.8-6.1 2.8-9.4 1 .1 1.9.3 2.9.3 1.1 0 2.2-.1 3.2-.3 0 4.5 1.8 8.7 4.7 12l-15.5-.2zm36.2-67.1c0 13.6-3.1 26.2-8.8 35.8-5.4 9-12.4 14-19.7 14-7.4 0-14.4-5-19.7-14-5.6-9.6-8.8-22.3-8.8-35.8v-13.1c0-.1.1-.4.4-.4h56.4c.1 0 .4.1.4.4l-.2 13.1zm16.8-1.5c-1.5 9.6-6.8 18.2-14.3 24.2 1.9-7 2.9-14.8 2.9-22.7v-5.1h8.3c.9 0 1.8.4 2.4 1.1.7.7 1 1.6.7 2.5zm-32.4 6.6l-7.4-1-3.3-6.6c-.4-.9-1.3-1.4-2.2-1.4-.9 0-1.8.5-2.2 1.4l-3.3 6.6-7.4 1c-.9.1-1.7.8-1.9 1.7-.3.9 0 1.9.6 2.5l5.4 5.2-1.3 7.4c-.1.9.3 1.8 1 2.4.8.5 1.8.6 2.5.1l6.6-3.4 6.6 3.4c.4.1.8.3 1.1.3.5 0 1-.1 1.4-.5.8-.5 1.1-1.5 1-2.4l-1.3-7.4 5.4-5.2c.5-.6.8-1.7.4-2.4-.1-.9-.9-1.6-1.7-1.7zm-8.3 6.7c-.6.5-.9 1.4-.8 2.2l.6 3.7-3.3-1.8c-.4-.1-.8-.3-1.1-.3-.4 0-.8.1-1.1.3l-3.3 1.8.6-3.7c.1-.8-.1-1.7-.8-2.2l-2.7-2.7 3.7-.5c.8-.1 1.5-.6 1.8-1.3l1.7-3.4 1.7 3.4c.4.8 1 1.3 1.8 1.3l3.7.5-2.5 2.7zM726.9 102c-1.7-1.9-4.1-3.1-6.6-3.1H712v-2.5c0-3.2-2.7-5.9-5.9-5.9h-56.3c-3.2 0-5.9 2.7-5.9 5.9v2.5h-8.3c-2.5 0-5 1.1-6.6 3.1-1.7 1.9-2.3 4.5-1.9 6.9 2.2 13.4 10.7 25.3 22.7 31.8 1.1 2.7 2.3 5.1 3.7 7.5 4.5 7.4 9.9 12.6 15.9 15 .6 6.2-3.6 12.1-9.7 13.5-1.3.3-2.2 1.3-2.2 2.5v12.6h-5.1c-4.6 0-8.3 3.7-8.3 8.3v6.5c0 1.5 1.3 2.8 2.8 2.8h62.3c1.5 0 2.8-1.3 2.8-2.8v-6.5c0-4.6-3.7-8.3-8.3-8.3h-5.1v-12.6c0-1.3-.9-2.4-2.2-2.7-6.2-1.4-10.3-7.4-9.7-13.6 6-2.5 11.3-7.6 15.7-14.9 1.4-2.3 2.7-4.8 3.7-7.5 12-6.5 20.5-18.3 22.7-31.8.4-2.3-.2-4.8-1.9-6.7zm-94.3 6c-.1-.9.1-1.8.6-2.4.6-.6 1.4-1.1 2.4-1.1h8.3v5.1c0 7.9 1 15.7 2.9 22.7-7.4-6.1-12.6-14.8-14.2-24.3zm71.1 89.5c1.5 0 2.8 1.3 2.8 2.8v3.8h-56.8v-3.8c0-1.5 1.3-2.8 2.8-2.8h51.2zm-10.5-15.4v9.9h-30.1v-9.9h30.1zm-22.9-5.5c.6-.8 1.3-1.5 1.9-2.4 1.8-2.9 2.8-6.1 2.8-9.4 1 .1 1.9.3 2.9.3 1.1 0 2.2-.1 3.2-.3 0 4.5 1.8 8.7 4.7 12l-15.5-.2zm36.2-67.1c0 13.6-3.1 26.2-8.8 35.8-5.4 9-12.4 14-19.7 14-7.4 0-14.4-5-19.7-14-5.6-9.6-8.8-22.3-8.8-35.8V96.4c0-.1.1-.4.4-.4h56.4c.1 0 .4.1.4.4l-.2 13.1zm16.8-1.5c-1.5 9.6-6.8 18.2-14.3 24.2 1.9-7 2.9-14.8 2.9-22.7v-5.1h8.3c.9 0 1.8.4 2.4 1.1.7.7 1 1.6.7 2.5zm-32.4 6.6l-7.4-1-3.3-6.6c-.4-.9-1.3-1.4-2.2-1.4-.9 0-1.8.5-2.2 1.4l-3.3 6.6-7.4 1c-.9.1-1.7.8-1.9 1.7-.3.9 0 1.9.6 2.5l5.4 5.2-1.3 7.4c-.1.9.3 1.8 1 2.4.8.5 1.8.6 2.5.1l6.6-3.4 6.6 3.4c.4.1.8.3 1.1.3.5 0 1-.1 1.4-.5.8-.5 1.1-1.5 1-2.4l-1.3-7.4 5.4-5.2c.5-.6.8-1.7.4-2.4-.1-.9-.9-1.6-1.7-1.7zm-8.3 6.7c-.6.5-.9 1.4-.8 2.2l.6 3.7-3.3-1.8c-.4-.1-.8-.3-1.1-.3-.4 0-.8.1-1.1.3l-3.3 1.8.6-3.7c.1-.8-.1-1.7-.8-2.2l-2.7-2.7 3.7-.5c.8-.1 1.5-.6 1.8-1.3l1.7-3.4 1.7 3.4c.4.8 1 1.3 1.8 1.3l3.7.5-2.5 2.7zM478.4 243c-3.4 0-6.2-2.8-6.2-6.2 0-1.2-.9-2.1-2.1-2.1-1.2 0-2.1.9-2.1 2.1 0 3.4-2.8 6.2-6.2 6.2-1.2 0-2.1.9-2.1 2.1s.9 2.1 2.1 2.1c3.4 0 6.2 2.8 6.2 6.2 0 1.2.9 2.1 2.1 2.1 1.2 0 2.1-.9 2.1-2.1 0-3.4 2.8-6.2 6.2-6.2 1.2 0 2.1-.9 2.1-2.1-.1-1.1-1-2.1-2.1-2.1zm-8.3 4.2c-.6-.8-1.3-1.5-2.1-2.1.8-.6 1.5-1.3 2.1-2.1.6.8 1.3 1.5 2.1 2.1-.7.6-1.5 1.3-2.1 2.1zm-84.6 18.5c0-1.2-.9-2.1-2.1-2.1-3.4 0-6.2-2.8-6.2-6.2 0-1.2-.9-2.1-2.1-2.1-1.2 0-2.1.9-2.1 2.1 0 3.4-2.8 6.2-6.2 6.2-1.2 0-2.1.9-2.1 2.1s.9 2.1 2.1 2.1c3.4 0 6.2 2.8 6.2 6.2 0 1.2.9 2.1 2.1 2.1 1.2 0 2.1-.9 2.1-2.1 0-3.4 2.8-6.2 6.2-6.2 1.2 0 2.1-.9 2.1-2.1zm-10.3 2.2c-.6-.8-1.3-1.5-2.1-2.1.8-.6 1.5-1.3 2.1-2.1.6.8 1.3 1.5 2.1 2.1-.8.5-1.5 1.2-2.1 2.1zm84.1 20.6c-1.1-.3-2.2.4-2.5 1.5-.3 1-.6 2.1-1 3.1s.1 2.3 1.2 2.6c1 .4 2.3-.1 2.6-1.2.4-1.2.8-2.3 1.1-3.5.3-1.1-.3-2.2-1.4-2.5zm-32.5-41.3c-1.2 0-2.1.9-2.1 2.1 0 1.2.9 2.1 2.1 2.1 17.1 0 31 13.9 31 31 0 1.2.9 2.1 2.1 2.1 1.2 0 2.1-.9 2.1-2.1-.1-19.5-15.9-35.2-35.2-35.2zm-32.9 30.9h.4c1 0 1.8-.7 2.1-1.7.1-.6.3-1.3.5-1.9.3-1.1-.4-2.2-1.5-2.5-1.1-.3-2.2.4-2.5 1.5-.2.7-.4 1.4-.5 2.2-.3 1.1.4 2.2 1.5 2.4zm32.9 35.1c-17.1 0-31-13.9-31-31 0-1.2-.9-2.1-2.1-2.1-1.2 0-2.1.9-2.1 2.1 0 19.3 15.7 35.1 35.1 35.1 1.2 0 2.1-.9 2.1-2.1 0-1.1-.9-2-2-2zM440 241l35.7-35.7c.6-.6.8-1.5.5-2.3-.3-.8-1.1-1.3-1.9-1.3h-20.6c-.5 0-1.1.2-1.5.6l-15.9 15.9h-19l-15.9-15.9c-.4-.4-1-.6-1.5-.6h-20.6c-.8 0-1.6.5-1.9 1.3-.3.8-.1 1.7.5 2.3l35.7 35.7c-15.5 4.9-26.9 18.1-29.6 34.1-2.7 16 3.8 32.2 16.8 41.9 13 9.7 30.4 11.4 45 4.2 2.3-1.2 4.5-2.6 6.6-4 .3-.1.5-.3.8-.5 12.8-9.8 19.2-25.9 16.4-41.8-2.8-15.9-14.2-29-29.6-33.9zm-.8-19.8l15.3-15.3h4.5l-.6.6 2.9 2.9 3.5-3.5h4.5L439.2 236v-14.8zm-20.7 1.2H435v17.3c-5.4-1.1-11.1-1.1-16.5 0v-17.3zm-34.2-16.5h4.5l3.5 3.5 2.9-2.9-.6-.6h4.5l15.3 15.3V236l-30.1-30.1zm67.4 106.6l-7-7c-.8-.8-2.1-.8-2.9 0s-.8 2.1 0 2.9l6.5 6.5c-.9.6-1.8 1.2-2.8 1.7l-4.9-4.9c-.8-.8-2.1-.8-2.9 0-.8.8-.8 2.1 0 2.9l3.9 3.9c-14.6 6-31.5 2.6-42.6-8.6-11.2-11.2-14.4-28.1-8.4-42.7s20.3-24.1 36.2-24.1c16.6 0 31.3 10.4 36.9 25.9 5.6 15.6.8 33-12 43.5zm-24.9-77.7h4.1v-8.3h-8.3v4.1h4.1c.1.1.1 4.2.1 4.2zm-22.1-13l4.1 4.1 2.9-2.9-4.1-4.1-2.9 2.9zm-8.3-8.2l4.1 4.1 2.9-2.9-4.1-4.1-2.9 2.9zm45.4 9.4l2.9 2.9 4.1-4.1-2.9-2.9-4.1 4.1zm8.3-8.3l2.9 2.9 4.1-4.1-2.9-2.9-4.1 4.1zM853 534.4c-3.4-.2-6-3.1-5.8-6.5.1-1.2-.8-2.1-1.9-2.2-1.2-.1-2.1.8-2.2 1.9-.2 3.4-3.1 6-6.5 5.8-1.2-.1-2.1.8-2.2 1.9-.1 1.2.8 2.1 1.9 2.2 3.4.2 6 3.1 5.8 6.5-.1 1.2.8 2.1 1.9 2.2 1.2.1 2.1-.8 2.2-1.9.2-3.4 3.1-6 6.5-5.8 1.2.1 2.1-.8 2.2-1.9.1-1.2-.7-2.1-1.9-2.2zm-8.5 3.8c-.5-.8-1.2-1.6-2-2.2.8-.5 1.6-1.2 2.2-2 .5.8 1.2 1.6 2 2.2-.7.5-1.5 1.1-2.2 2zM759 552c.1-1.2-.8-2.1-1.9-2.2-3.4-.2-6-3.1-5.8-6.5.1-1.2-.8-2.1-1.9-2.2-1.2-.1-2.1.8-2.2 1.9-.2 3.4-3.1 6-6.5 5.8-1.2-.1-2.1.8-2.2 1.9-.1 1.2.8 2.1 1.9 2.2 3.4.2 6 3.1 5.8 6.5-.1 1.2.8 2.1 1.9 2.2s2.1-.8 2.2-1.9c.2-3.4 3.1-6 6.5-5.8 1.2.1 2.2-.7 2.2-1.9zm-10.4 1.6c-.5-.8-1.2-1.6-2-2.2.8-.5 1.6-1.2 2.2-2 .5.8 1.2 1.6 2 2.2-.8.5-1.6 1.2-2.2 2zm82.9 25.2c-1.1-.3-2.2.3-2.6 1.3-.3 1-.7 2-1.1 3s0 2.3 1.1 2.7c1 .4 2.3 0 2.7-1.1.4-1.1.9-2.3 1.3-3.4.2-1-.4-2.1-1.4-2.5zm-30.2-43.1c-1.2-.1-2.1.8-2.2 1.9s.8 2.1 1.9 2.2c17.1.9 30.2 15.5 29.2 32.6-.1 1.2.8 2.1 1.9 2.2 1.2.1 2.1-.8 2.2-1.9 1.1-19.3-13.7-35.9-33-37zm-34.5 29.1h.4c1 .1 1.8-.6 2.2-1.6.2-.6.3-1.3.6-1.9.3-1.1-.3-2.2-1.3-2.6-1.1-.3-2.2.3-2.6 1.3-.2.7-.5 1.4-.6 2.2-.5 1.2.2 2.3 1.3 2.6zm30.8 36.9c-17.1-.9-30.2-15.5-29.2-32.6.1-1.2-.8-2.1-1.9-2.2-1.2-.1-2.1.8-2.2 1.9-1.1 19.3 13.8 35.9 33.1 37 1.2.1 2.1-.8 2.2-1.9.1-1.2-.8-2.2-2-2.2zm17.2-71.4l37.6-33.7c.6-.5.9-1.4.6-2.2s-1-1.3-1.9-1.4l-20.6-1.1c-.5 0-1.1.1-1.5.5l-16.7 15-18.9-1-15-16.7c-.4-.4-.9-.6-1.4-.7l-20.6-1.1c-.8 0-1.6.4-2 1.2-.4.8-.2 1.7.3 2.3l33.7 37.6c-15.7 4-27.8 16.6-31.4 32.4-3.6 15.8 2 32.3 14.5 42.8s29.7 13 44.7 6.6c2.3-1.1 4.6-2.3 6.9-3.6.3-.1.5-.3.8-.5 13.4-9.1 20.5-24.8 18.6-40.8-2-16.2-12.6-29.9-27.7-35.6zm.2-19.9l16.1-14.4 4.5.2-.6.5 2.7 3.1 3.7-3.3 4.5.2-31.7 28.4c0 .2.8-14.7.8-14.7zm-20.6.1l16.5.9-.9 17.3c-5.3-1.4-11-1.7-16.5-.9l.9-17.3zm-33.3-18.3l4.5.2 3.3 3.7 3.1-2.7-.5-.6 4.5.2 14.4 16.1-.8 14.8-28.5-31.7zm61.4 110.1L816 595c-.7-.8-2.1-.9-2.9-.2-.8.7-.9 2-.2 2.9l6.1 6.9c-.9.5-1.9 1.1-2.9 1.5l-4.6-5.2c-.7-.8-2.1-.9-2.9-.2-.8.7-.9 2-.2 2.9l3.7 4.1c-14.9 5.2-31.6.9-42.1-11-10.5-11.8-12.9-28.8-6-43.1s21.6-23 37.4-22.1c16.6.9 30.7 12.1 35.4 27.9 4.9 16-.9 33.1-14.3 42.9zm-20.6-78.9l4.1.2.5-8.2-8.2-.5-.3 4.1 4.1.2c.1 0-.2 4.2-.2 4.2zm-21.3-14.2l3.9 4.3 3.1-2.7-3.9-4.3-3.1 2.7zm-7.8-8.7l3.9 4.3 3.1-2.7-3.9-4.3c-.1 0-3.1 2.7-3.1 2.7zm44.8 11.9l2.7 3.1 4.3-3.9-2.7-3.1-4.3 3.9zm8.7-7.8l2.7 3.1 4.3-3.9-2.7-3.1-4.3 3.9zM200.3 87.5c-10.4-13.9-25.4-23.1-42.5-25.7-17.1-2.6-34.4 1.4-48.3 11.9s-23.1 25.4-25.7 42.5c-2.3 14.7.6 29.8 8.1 42.5 1.2 2 2.3 3.8 3.8 5.8 9.3 12.4 22.6 21.4 37.6 24.9.6.3 1.4.3 2 .6h.6c4 .9 8.4 1.2 12.4 1.2s8.4-.3 12.4-1.2h.3c5.8-1.2 11.3-2.9 16.5-5.8 1.2-.6 1.7-2 1.2-3.5-.6-1.2-2-1.7-3.5-1.2-3.2 1.4-6.4 2.9-9.5 3.8L176 165l20.5-3.8c-1.7 2.6-3.8 4.9-6.1 6.9-.9.9-.9 2.6 0 3.5.9.9 2.6.9 3.5 0 3.8-3.8 7.2-8.1 10.1-13 4.6-7.8 7.5-16.2 8.4-25.2v-.3c0-.9.3-1.4.3-2.3 1.5-15.3-3.1-30.6-12.4-43.3zm-43.4-20.8c13.3 2 25.2 8.1 34.1 17.6l-3.2 26.6-19.7 4.6-17.6-12.7V83.7l4-2.9c1.2-.9 1.4-2.3.6-3.5-.9-1.2-2.3-1.4-3.5-.6l-3.8 2.6-17.6-10.7c8.8-2.5 17.8-3.4 26.7-1.9zm7.8 52.6l-6.4 19.4h-20.5l-6.4-19.4 8.4-6.1 8.4-6.1 16.5 12.2zm-52.3-41.6c3.8-2.6 7.8-4.9 11.9-6.6l21.1 13v18.8l-17.6 12.7-19.9-4.6-4-25.4c2.4-3 5.3-5.6 8.5-7.9zM88.7 117c1.4-9.5 5.2-18.5 10.7-26l3.5 21.4-14.7 15c-.4-3.8-.1-6.9.5-10.4zm-.3 17l17.9-17.9 19.9 4.6 6.6 20.5-12.4 19.4-24.9-4.9c-3.6-7.2-5.9-14.4-7.1-21.7zm11.3 27.5l20.5 3.8 10.7 18.2c-12.4-3.8-23.4-11.3-31.2-22zm58.7 23.4c-6.9 1.2-14.2 1.2-21.1 0l-12.4-22 12.4-19.1h21.4l12.4 19.1-12.7 22zm41.9-29.5l-24.9 4.6-12.4-19.3 6.6-20.5 19.9-4.6 17.6 18.2c-.7 7.8-3.3 15-6.8 21.6zm7.5-28l-14.7-15 2.6-22.6c.3.3.6.6.6.9 8 10.7 11.8 23.7 11.5 36.7zm-23.1 46.3c-.6 0-1.4.3-1.7.9-.3.6-.9 1.2-.9 1.7s.3 1.4.9 1.7c.6.6 1.2.9 1.7.9.6 0 1.4-.3 1.7-.9.6-.6.9-1.2.9-1.7s-.3-1.2-.9-1.7c-.6-.7-1.1-.9-1.7-.9zm-26.3-98.3c.6.6 1.2.9 1.7.9s1.4-.3 1.7-.9c.6-.6.9-1.2.9-1.7s-.3-1.2-.9-1.7c-.3-.6-1.2-.9-1.7-.9s-1.4.3-1.7.9-.9 1.2-.9 1.7.3 1.4.9 1.7zM1054.3 79.5c-10.4-13.9-25.4-23.1-42.5-25.7-17.1-2.6-34.4 1.4-48.3 11.9-13.9 10.4-23.1 25.4-25.7 42.5-2.3 14.7.6 29.8 8.1 42.5 1.2 2 2.3 3.8 3.8 5.8 9.3 12.4 22.6 21.4 37.6 24.9.6.3 1.4.3 2 .6h.6c4 .9 8.4 1.2 12.4 1.2s8.4-.3 12.4-1.2h.3c5.8-1.2 11.3-2.9 16.5-5.8 1.2-.6 1.7-2 1.2-3.5-.6-1.2-2-1.7-3.5-1.2-3.2 1.4-6.4 2.9-9.5 3.8L1030 157l20.5-3.8c-1.7 2.6-3.8 4.9-6.1 6.9-.9.9-.9 2.6 0 3.5.9.9 2.6.9 3.5 0 3.8-3.8 7.2-8.1 10.1-13 4.6-7.8 7.5-16.2 8.4-25.2v-.3c0-.9.3-1.4.3-2.3 1.5-15.3-3.1-30.6-12.4-43.3zm-43.4-20.8c13.3 2 25.2 8.1 34.1 17.6l-3.2 26.6-19.7 4.6-17.6-12.7V75.7l4-2.9c1.2-.9 1.4-2.3.6-3.5-.9-1.2-2.3-1.4-3.5-.6l-3.8 2.6-17.6-10.7c8.8-2.5 17.8-3.4 26.7-1.9zm7.8 52.6l-6.4 19.4h-20.5l-6.4-19.4 8.4-6.1 8.4-6.1 16.5 12.2zm-52.3-41.6c3.8-2.6 7.8-4.9 11.9-6.6l21.1 13v18.8l-17.6 12.7-19.9-4.6-4-25.4c2.4-3 5.3-5.6 8.5-7.9zM942.7 109c1.4-9.5 5.2-18.5 10.7-26l3.5 21.4-14.7 15c-.4-3.8-.1-6.9.5-10.4zm-.3 17l17.9-17.9 19.9 4.6 6.6 20.5-12.4 19.4-24.9-4.9c-3.6-7.2-5.9-14.4-7.1-21.7zm11.3 27.5l20.5 3.8 10.7 18.2c-12.4-3.8-23.4-11.3-31.2-22zm58.7 23.4c-6.9 1.2-14.2 1.2-21.1 0l-12.4-22 12.4-19.1h21.4l12.4 19.1-12.7 22zm41.9-29.5l-24.9 4.6-12.4-19.4 6.6-20.5 19.9-4.6 17.6 18.2c-.7 7.9-3.3 15.1-6.8 21.7zm7.5-28l-14.7-15 2.6-22.6c.3.3.6.6.6.9 8 10.7 11.8 23.7 11.5 36.7zm-49.4-52c.6.6 1.2.9 1.7.9.6 0 1.4-.3 1.7-.9.6-.6.9-1.2.9-1.7s-.3-1.2-.9-1.7c-.3-.6-1.2-.9-1.7-.9-.6 0-1.4.3-1.7.9-.3.6-.9 1.2-.9 1.7s.3 1.4.9 1.7zm26.3 98.3c-.6 0-1.4.3-1.7.9s-.9 1.2-.9 1.7.3 1.4.9 1.7c.6.6 1.2.9 1.7.9.6 0 1.4-.3 1.7-.9.6-.6.9-1.2.9-1.7s-.3-1.2-.9-1.7-1.1-.9-1.7-.9zM214.6 465.9v-.2-.5-.5c0-.1-.1-.3 0-.5v-.1c-.1-.3-.1-.6-.1-.8 0-.1-.1-.4-.1-.6v-.1c0-.1 0-.1-.1-.4l-.2-.5c-.2-.5-.3-1-.6-1.4l-10.1-21.1-.4-1.9c1.4.1 2.6-1 2.8-2.4.1-1.4-1-2.6-2.4-2.8l-1.5-.1-1.3-5.9c1.2-.1 2.2-1.1 2.3-2.4.1-1.4-1-2.6-2.4-2.8l-1.1-.1-1.4-6.1c1.2-.3 2-1.5 1.9-2.7-.1-1.3-1.1-2.2-2.4-2.3h-.7l-1.4-6.2c.9-.4 1.5-1.2 1.5-2.2.1-1.4-1-2.6-2.4-2.8h-.2l-1.4-6.5c.9-.6 1.4-1.6 1.1-2.7-.3-1.1-1.1-1.9-2.2-2l-2.5-11.2c-.1-.4-.3-.8-.6-1.1l-3.4-3.9c-.3-.4-.8-.7-1.3-.7l-28.6-7.6 1.7-23.2c0-.7-.2-1.3-.6-1.8l-3.5-3.9c-.8-.9-2.1-1.1-3.2-.6l-39.7 21.2-.9.8c-.1.1-.2.3-.2.4l-6.3 12.4c-.4.9-.3 2.1.3 2.9l2.3 2.6-1.6 3.8c-.4 1-.3 1.9.4 2.6l3.4 3.9c.7.7 1.6 1 2.5.8l4-1 4.7 5.4-1.6 3.8c-.4 1-.3 1.9.4 2.6l3.4 3.9c.7.7 1.6 1 2.5.8l4-1 21.7 24.8-1.6 3.8c-.4 1-.3 1.9.4 2.6l3.4 3.9c.7.7 1.6 1 2.5.8l4-1 4.7 5.4-1.6 3.8c-.4 1-.3 1.9.4 2.6l3.4 3.9c.7.7 1.6 1 2.5.8l4.3-1.1 12.3 9.8-.7 2.2c-.2.9-.1 1.7.5 2.4l5.1 5.8c.8 1 2.3 1.2 3.5.4l2.9-2.1 4.8 3.8c2.9 2.4 7.2 2.3 10.1-.2l.5-.5c.3.1 1.4-1.3 1.4-1.3.1-.1 0-.2.1-.2.2-.3.4-.7.6-.9.1-.1 0-.1 0-.2.1-.3.3-.7.5-1.1l.1-.1c.1 0 0-.2 0-.2 0-.2.1-.4.2-.6l1.2-.6zm-10.4 2.2L174.8 445l-66.4-76.1 3.8-7.4 17.3 19.9 1.1 8.4c0 .5.3 1 .7 1.4l45.9 52.6 27.7 24.9c-.3-.2-.5-.4-.7-.6zm5.1-2.1l-28.6-26-45.1-51.7-1.2-8.4c0-.5-.3-1-.7-1.4l-18.1-20.9 35.1-18.6 1.3 1.5-1.7 24.4c-.1 1.2.8 2.4 1.9 2.7L182 375l2.4 2.8 2 8.9-9.3-.7c-.9-.1-1.8.3-2.3 1.2-.5.8-.6 1.8-.2 2.6.4.8 1.2 1.4 2.1 1.4l10.9.8 1.3 5.9-9-.6c-.9-.1-1.8.3-2.3 1.2-.5.8-.6 1.8-.2 2.6.4.8 1.2 1.4 2.1 1.4l10.5.7 1.3 5.9-8.6-.6c-.9-.1-1.8.3-2.3 1.2-.5.8-.6 1.8-.2 2.6.4.8 1.2 1.4 2.1 1.4l10.1.7 1.3 5.9-8.1-.6c-.9-.1-1.8.3-2.3 1.2-.5.8-.6 1.8-.2 2.6.4.8 1.2 1.4 2.1 1.4l9.7.7 1.3 5.9-7.6-.7c-.9-.1-1.8.3-2.3 1.2-.5.8-.6 1.8-.2 2.6.4.8 1.2 1.4 2.1 1.4l9.2.6.9 3.6c0 .1.1.4.2.6l10.3 21.1c.1.3.2.5.3.8v.2c.1.1 0 .1.1.3V464.6c.2 1.2.2 1.3.1 1.4zM132 359.6c-.5-.6-1.4-1-2.2-1-.9-.1-1.7.2-2.4.8-.6.5-1 1.4-1 2.2-.1.9.2 1.7.8 2.4.5.6 1.4 1 2.2 1 .9.1 1.7-.2 2.4-.8.6-.6 1-1.4 1-2.2.1-.9-.2-1.7-.8-2.4zm6.8 7.7c-.6-.6-1.4-1-2.2-1-.9-.1-1.7.2-2.4.8-.6.5-1 1.4-1 2.2-.1.9.2 1.7.8 2.4.6.6 1.4 1 2.2 1 .9.1 1.7-.2 2.4-.8.6-.5 1-1.2 1-2.2 0-.9-.3-1.8-.8-2.4zm6.7 7.9c-.6-.6-1.4-1-2.2-1-.8 0-1.7.2-2.4.8-.6.5-1 1.4-1 2.2-.1.9.2 1.7.8 2.4.6.6 1.4 1 2.2 1 .9.1 1.7-.2 2.4-.8.6-.6 1-1.4 1.1-2.3-.1-.8-.4-1.7-.9-2.3zm6.9 7.7c-.6-.6-1.4-1-2.2-1-.9-.1-1.7.2-2.4.8-.6.5-1 1.4-1 2.2-.1.9.2 1.7.8 2.4.6.6 1.4 1 2.2 1 .9.1 1.7-.2 2.4-.8.6-.5.9-1.4 1-2.2 0-.9-.3-1.8-.8-2.4zM1089.1 348.8l-6.2-12.4c0-.1-.1-.3-.2-.4l-.9-.8-39.5-21.5c-1.1-.6-2.3-.4-3.2.5l-3.5 3.9c-.4.5-.6 1.1-.6 1.8l1.5 23.2-28.6 7.4c-.5 0-1 .4-1.3.7l-3.4 3.9c-.3.3-.5.7-.6 1.1l-2.6 11.2c-1.1.1-1.9.9-2.2 2-.3 1.1.2 2.1 1.1 2.7l-1.5 6.4h-.2c-1.4.1-2.5 1.4-2.4 2.7 0 1 .6 1.8 1.5 2.2l-1.4 6.2h-.7c-1.3 0-2.3 1-2.4 2.3-.1 1.2.7 2.4 1.9 2.7l-1.4 6.1-1.1.1c-1.4.1-2.5 1.4-2.4 2.7.1 1.2 1.1 2.3 2.3 2.4l-1.3 5.9-1.5.1c-1.4.1-2.5 1.4-2.4 2.7.1 1.4 1.4 2.5 2.7 2.4l-.4 1.9-10.3 21.1c-.3.4-.4.9-.6 1.4l-.2.5c-.1.2-.2.2-.1.4v.1c0 .2 0 .4-.1.6 0 .2 0 .5-.1.8v.1c0 .2-.1.4 0 .5v1.2l.2.7c.1.2.2.4.2.6v.2l.1.1c.2.4.3.8.5 1.1v.2c.2.2.4.6.6.9.1.1 0 .2.1.2 0 0 1 1.4 1.4 1.3l.5.5c2.9 2.5 7.1 2.7 10.1.3l4.8-3.8 2.9 2.1c1.2.8 2.7.6 3.5-.4l5.1-5.8c.6-.7.7-1.6.5-2.4l-.7-2.2 12.4-9.7 4.3 1.1c.9.3 1.9 0 2.6-.7l3.4-3.9c.7-.7.8-1.7.4-2.6l-1.5-3.8 4.7-5.4 4 1.1c.9.3 1.9 0 2.6-.7l3.4-3.9c.7-.7.8-1.7.4-2.6l-1.5-3.8 21.8-24.6 4 1.1c.9.3 1.9 0 2.6-.7l3.4-3.9c.7-.7.8-1.7.4-2.6l-1.5-3.8 4.7-5.4 4 1.1c.9.3 1.9 0 2.6-.7l3.4-3.9c.7-.7.8-1.7.4-2.6l-1.5-3.8 2.3-2.6c.9-1 1.1-2.2.7-3.1zM982 445.9c-.1-.2-.1-.3-.1-.4v-1c0-.2.1-.3 0-.4 0-.1 0-.2.1-.3v-.2c.1-.3.2-.5.3-.8l10.4-21c.1-.2.2-.5.2-.6l.9-3.6 9.2-.6c.9 0 1.7-.6 2.1-1.4.4-.8.4-1.8-.1-2.6-.5-.9-1.4-1.3-2.3-1.2l-7.6.6 1.3-5.9 9.7-.6c.9 0 1.7-.6 2.1-1.4.4-.8.4-1.8-.1-2.6-.5-.9-1.4-1.3-2.3-1.2l-8.1.5 1.3-5.9 10.1-.6c.9 0 1.7-.6 2.1-1.4.4-.8.4-1.8-.1-2.6-.5-.9-1.4-1.3-2.3-1.2l-8.6.6 1.3-5.9 10.5-.7c.9 0 1.7-.6 2.1-1.4.4-.8.4-1.8-.1-2.6-.5-.9-1.4-1.3-2.3-1.2l-9 .5 1.3-5.9 10.9-.7c.9 0 1.7-.6 2.1-1.4.4-.8.4-1.8-.1-2.6-.5-.9-1.4-1.3-2.3-1.2l-9.3.6 2.1-8.9 2.4-2.7 29.8-7.2c1.2-.3 2-1.5 2-2.7l-1.5-24.4 1.3-1.5 35 18.8-18.3 20.7c-.3.4-.6.9-.7 1.3l-1.2 8.4-45.5 51.3-28.7 25.2zm34.7-20.7l-29.5 22.9c-.2.2-.5.3-.8.5l27.9-24.7 46.3-52.3c.3-.4.6-.9.7-1.3l1.2-8.4 17.5-19.8 3.8 7.4-67.1 75.7zm39.2-72.1c.8 0 1.6-.4 2.2-1 .6-.6.8-1.5.8-2.4 0-.8-.4-1.7-1-2.2-.6-.6-1.5-.9-2.4-.8-.8 0-1.6.4-2.2 1-.6.6-.8 1.5-.8 2.4 0 1 .4 1.7 1 2.2.7.6 1.5.8 2.4.8zm6.8-7.7c.8 0 1.7-.4 2.2-1 .6-.6.8-1.5.8-2.4 0-.8-.4-1.7-1-2.2-.6-.6-1.5-.9-2.4-.8-.8 0-1.7.4-2.2 1-.6.6-.8 1.5-.8 2.4.1.8.5 1.6 1 2.2.7.6 1.5.9 2.4.8zm-13.6 15.5c.8 0 1.6-.4 2.2-1 .6-.6.8-1.5.8-2.4 0-.8-.4-1.7-1-2.2-.6-.6-1.5-.8-2.4-.8-.8 0-1.6.4-2.2 1-.6.6-.8 1.5-.9 2.3.1.9.5 1.6 1.1 2.3.7.6 1.5.9 2.4.8zm-6.9 7.7c.8 0 1.6-.4 2.2-1 .6-.6.8-1.5.8-2.4 0-.8-.4-1.7-1-2.2-.6-.6-1.5-.9-2.4-.8-.8 0-1.6.4-2.2 1-.6.6-.8 1.5-.8 2.4.1.8.4 1.7 1 2.2.7.6 1.5.8 2.4.8zM301.6 737l-3.1-13.5c0-.1-.1-.3-.1-.5l-.7-1-33.5-30c-.9-.8-2.2-.9-3.2-.2l-4.3 3c-.5.4-.9 1-1 1.6l-3.9 22.9-29.6.6c-.5-.1-1 .1-1.4.4l-4.2 3c-.3.2-.6.6-.8 1l-5.1 10.3c-1.1-.1-2 .5-2.6 1.4-.5 1-.3 2.1.4 2.9l-2.9 5.9-.2-.1c-1.4-.2-2.8.7-3 2.1-.2 1 .2 1.9 1 2.5l-2.8 5.7-.7-.1c-1.2-.3-2.5.4-2.9 1.6-.4 1.2.1 2.5 1.2 3.1l-2.8 5.6-1.1-.2c-1.4-.2-2.8.7-3 2.1-.2 1.2.5 2.5 1.7 2.9l-2.7 5.5-1.4-.3c-1.4-.2-2.8.7-3 2.1-.2 1.4.7 2.8 2.1 3l-.8 1.8-14.9 18.1c-.3.3-.6.8-.9 1.2l-.3.5c-.1.2-.2.2-.2.3v.1c0 .2-.1.4-.2.5-.1.2-.1.5-.3.7v.1c0 .2-.1.3-.1.5-.1.1-.1.3-.1.5 0 .1-.1.3-.1.5l-.1.2v.7c.1.2.1.4.1.6 0 0-.1.1 0 .2l.1.1c.1.4.1.8.2 1.2 0 .1-.1.1 0 .2.1.3.2.7.3 1 .1.1 0 .2.1.3 0 0 .7 1.6 1 1.6l.4.6c2.2 3.1 6.3 4.2 9.7 2.6l5.6-2.6 2.3 2.7c1 1 2.5 1.2 3.5.4l6.3-4.4c.7-.5 1.1-1.4 1.1-2.2l-.1-2.2 14.3-6.5 4 2.1c.8.5 1.8.4 2.7-.1l4.2-3c.8-.5 1.2-1.4 1-2.5l-.6-4.1 5.9-4.2 3.7 2c.8.5 1.8.4 2.7-.1l4.2-3c.8-.5 1.2-1.4 1-2.5l-.6-4.1 26.9-18.9 3.7 2c.8.5 1.8.4 2.7-.1l4.2-3c.8-.5 1.2-1.4 1-2.5l-.6-4.1 5.9-4.2 3.7 2c.8.5 1.8.4 2.7-.1l4.2-3c.8-.5 1.2-1.4 1-2.5l-.6-4.1 2.9-2c.6-.5 1-1.6.8-2.6zm-126.5 69.8c-.1-.2 0-.3 0-.4l.1-.2v-.1l.1-.5v-.1l.1-.1c.1-.2.1-.3.1-.4.1-.1.1-.2.1-.3v-.1l.1-.1c.1-.3.3-.5.5-.7l15-18.1c.1-.2.3-.4.3-.5l1.7-3.3 9.1 1.6c.9.2 1.8-.2 2.4-.9.6-.7.8-1.7.5-2.6-.3-1-1.1-1.6-2-1.7l-7.5-1.2 2.7-5.5 9.5 1.6c.9.2 1.8-.2 2.4-.9.6-.7.8-1.7.5-2.6-.3-1-1.1-1.6-2-1.7l-8-1.4 2.7-5.5 10 1.7c.9.2 1.8-.2 2.4-.9s.8-1.7.5-2.6c-.3-1-1.1-1.6-2-1.7l-8.5-1.4 2.7-5.5 10.4 1.8c.9.2 1.8-.2 2.4-.9s.8-1.7.5-2.6c-.3-1-1.1-1.6-2-1.7l-8.9-1.6 2.7-5.5 10.8 1.8c.9.2 1.8-.2 2.4-.9.6-.7.8-1.7.5-2.6-.3-1-1.1-1.6-2-1.7l-9.2-1.6 4.1-8.2 3-2.1 30.7-.1c1.2-.1 2.3-1 2.5-2.2l4.2-24.1 1.6-1.2 29.7 26.4-22.6 16c-.4.3-.8.7-1 1.2l-3.1 7.9-56.3 39.6-33.9 18.4zm38.5-12.2l-34 15.5c-.3.1-.5.2-.9.3l32.9-17.6 57.1-40.2c.4-.3.8-.7 1-1.2l3.1-7.9 21.5-15.2 2 8.1-82.7 58.2zm54.7-61.1c.8.2 1.6 0 2.4-.5.7-.5 1.2-1.2 1.3-2.1.2-.8 0-1.7-.5-2.4s-1.2-1.2-2.1-1.3c-.8-.2-1.6 0-2.4.5-.7.5-1.2 1.2-1.3 2.1-.2 1 0 1.8.5 2.4.5.7 1.2 1.1 2.1 1.3zm8.4-5.9c.8.2 1.7 0 2.4-.5s1.2-1.2 1.3-2.1c.2-.8 0-1.7-.5-2.4s-1.2-1.2-2.1-1.3c-.8-.2-1.7 0-2.4.5s-1.2 1.2-1.3 2.1c-.1.8.1 1.7.5 2.4.5.7 1.2 1.2 2.1 1.3zm-16.8 11.9c.8.2 1.6 0 2.4-.5.7-.5 1.2-1.2 1.3-2.1.2-.8 0-1.7-.5-2.4s-1.3-1.1-2.1-1.3c-.8-.2-1.6 0-2.4.5-.7.5-1.2 1.2-1.4 2-.1.9.1 1.7.5 2.5.6.7 1.4 1.2 2.2 1.3zm-8.5 5.9c.8.2 1.6 0 2.4-.5.7-.5 1.2-1.2 1.3-2.1.2-.8 0-1.7-.5-2.4s-1.2-1.2-2.1-1.3c-.8-.2-1.6 0-2.4.5-.7.5-1.2 1.2-1.3 2.1-.1.8 0 1.7.5 2.4s1.2 1.2 2.1 1.3zM757 715.5c-10.4-13.9-25.4-23.1-42.5-25.7s-34.4 1.4-48.3 11.9c-13.9 10.4-23.1 25.4-25.7 42.5-2.3 14.7.6 29.8 8.1 42.5 1.2 2 2.3 3.8 3.8 5.8 9.3 12.4 22.6 21.4 37.6 24.9.6.3 1.4.3 2 .6h.6c4 .9 8.4 1.2 12.4 1.2s8.4-.3 12.4-1.2h.3c5.8-1.2 11.3-2.9 16.5-5.8 1.2-.6 1.7-2 1.2-3.5-.6-1.2-2-1.7-3.5-1.2-3.2 1.4-6.4 2.9-9.5 3.8l10.4-18.2 20.5-3.8c-1.7 2.6-3.8 4.9-6.1 6.9-.9.9-.9 2.6 0 3.5.9.9 2.6.9 3.5 0 3.8-3.8 7.2-8.1 10.1-13 4.6-7.8 7.5-16.2 8.4-25.2v-.3c0-.9.3-1.4.3-2.3 1.4-15.4-3.3-30.7-12.5-43.4zm-43.4-20.8c13.3 2 25.2 8.1 34.1 17.6l-3.2 26.6-19.7 4.6-17.6-12.7v-19.1l4-2.9c1.2-.9 1.4-2.3.6-3.5-.9-1.2-2.3-1.4-3.5-.6l-3.8 2.6-17.5-10.6c8.7-2.6 17.7-3.5 26.6-2zm7.8 52.6l-6.4 19.4h-20.5l-6.4-19.4 8.4-6.1 8.4-6.1 16.5 12.2zm-52.3-41.6c3.8-2.6 7.8-4.9 11.9-6.6l21.1 13v18.8l-17.6 12.7-19.9-4.6-4-25.4c2.4-3 5.3-5.6 8.5-7.9zM645.4 745c1.4-9.5 5.2-18.5 10.7-26l3.5 21.4-14.7 15c-.4-3.8-.1-6.9.5-10.4zm-.3 17l17.9-17.9 19.9 4.6 6.6 20.5-12.4 19.4-24.9-4.9c-3.6-7.2-5.9-14.4-7.1-21.7zm11.3 27.5l20.5 3.8 10.7 18.2c-12.4-3.8-23.4-11.3-31.2-22zm58.7 23.4c-6.9 1.2-14.2 1.2-21.1 0l-12.4-22 12.4-19.1h21.4l12.4 19.1-12.7 22zm41.9-29.5l-24.9 4.6-12.4-19.4 6.6-20.5 19.9-4.6 17.6 18.2c-.7 7.9-3.3 15.1-6.8 21.7zm7.5-28l-14.7-15 2.6-22.6c.3.3.6.6.6.9 8 10.7 11.8 23.7 11.5 36.7zm-23.1 46.3c-.6 0-1.4.3-1.7.9s-.9 1.2-.9 1.7.3 1.4.9 1.7c.6.6 1.2.9 1.7.9.6 0 1.4-.3 1.7-.9.6-.6.9-1.2.9-1.7s-.3-1.2-.9-1.7-1.1-.9-1.7-.9zm-26.3-98.3c.6.6 1.2.9 1.7.9.6 0 1.4-.3 1.7-.9.6-.6.9-1.2.9-1.7s-.3-1.2-.9-1.7c-.3-.6-1.2-.9-1.7-.9-.6 0-1.4.3-1.7.9-.3.6-.9 1.2-.9 1.7s.3 1.4.9 1.7z"/></svg>