<svg xmlns="http://www.w3.org/2000/svg" width="800" height="200"><g fill="#fff"><path d="M136.5 72.4h-2l-1.2.2-1.2.4-1.7 1a4.2 4.2 0 0 1-1.1 1.7 6.2 6.2 0 0 1-1.6 1l-1.8.7a5.7 5.7 0 0 0-1.8 1.2 17.3 17.3 0 0 1-14.3-3.6 6.9 6.9 0 0 1-1.3-1.1 5.3 5.3 0 0 0-1.4-1.2l-.5-.4c-.1.1-.2-.1-.5-.5a5 5 0 0 1-.9-2.6 25 25 0 0 0-.5-2.9 5.3 5.3 0 0 0-1.2-2.5 3.8 3.8 0 0 0-3.2-.9 19.6 19.6 0 0 1-3 4.5 28.5 28.5 0 0 1-4.4 4.1 24.3 24.3 0 0 1-5.2 3 12.6 12.6 0 0 1-5.1 1.2 6.5 6.5 0 0 1-2.9 3.6 18.9 18.9 0 0 1-4.4 1.9l-.9.3h-.7a3.6 3.6 0 0 1-2.4-.5l-1.6-1.4a10.7 10.7 0 0 0-1.6-1.4 3.7 3.7 0 0 0-2.3-.6l-2.3-5.4a21.9 21.9 0 0 1-1.7-5.5 1.8 1.8 0 0 0 1-1.3v-1.5c-1.1-.4-1.7-.8-1.7-1.4a2.4 2.4 0 0 1 .3-1.6c.2-.6.5-1.1.7-1.7a.9.9 0 0 0-.3-1.3 39.9 39.9 0 0 1 3.7-12.5 26 26 0 0 1 8.2-10.1 3 3 0 0 1 .3-3.1 3.9 3.9 0 0 1 2.5-1.2 4.4 4.4 0 0 1 2.7.7 2.7 2.7 0 0 1 1.4 2.5 7.6 7.6 0 0 1-.1 1.5l-.5 1.4a25.4 25.4 0 0 1-1.9 6.1 62.8 62.8 0 0 1-2.7 5.9c-1 1.9-2 3.8-3.1 5.7a40.2 40.2 0 0 0-2.6 6c-.8.5-1.1 1.1-.8 1.8a8.7 8.7 0 0 0 1.1 1.8 2.9 2.9 0 0 1 .7 1.8c.1.6-.6 1.1-1.9 1.6a2.2 2.2 0 0 0 .3 2.6 11.9 11.9 0 0 1 1.6 2.3h1.6a2 2 0 0 0 1.4-1 1.9 1.9 0 0 0 2.2.3 10.5 10.5 0 0 0 2.2-1.3 9.2 9.2 0 0 1 2.4-1.3 3.3 3.3 0 0 1 3 .3 5.9 5.9 0 0 0 1.3-1.8 12.4 12.4 0 0 1 1-2 4.2 4.2 0 0 1 1.3-1.6 2.8 2.8 0 0 1 2.3-.4 12.8 12.8 0 0 1 3.9-4.4l5-3.4a39.3 39.3 0 0 0 4.4-3.4 8 8 0 0 0 2.5-4.7 77 77 0 0 0 4.1-7.2 25.8 25.8 0 0 1 4.9-6.6 2.2 2.2 0 0 1 1-1.3 5.6 5.6 0 0 1 1.6-.7 4.7 4.7 0 0 1 1.7.1 3.8 3.8 0 0 1 1.5.9 6.2 6.2 0 0 1-.5 3.6 22 22 0 0 1-1.5 3.1 17.5 17.5 0 0 0-1.2 3.2 7 7 0 0 0 .3 4l-2.9 1.5-2.6 1.3a7 7 0 0 0-2.2 2 6.3 6.3 0 0 0-1.2 3c1.9.7 3.1 1.6 3.4 2.7a9.7 9.7 0 0 1 .5 3.4 25.6 25.6 0 0 0 .3 3.9 6.6 6.6 0 0 0 2.7 3.9l.6.4a1.4 1.4 0 0 0 .7.4 3.1 3.1 0 0 0 1.9 0l1.7-.7a3.2 3.2 0 0 1 1.7-.3 3.1 3.1 0 0 1 2 1.3q1.6-2 3 0c.9-1.5 1.6-2.4 2.3-2.6a5.2 5.2 0 0 1 2.1-.2 5.1 5.1 0 0 0 2.1-.3c.7-.2 1.5-1.1 2.3-2.6l1 .9c.4-1.1.9-1.6 1.5-1.6l1.8.3a1.9 1.9 0 0 0 1.5 0c.4-.2.6-1 .6-2.5a3.3 3.3 0 0 0 1.7-.4l1.3-1 1.6-.9a5.6 5.6 0 0 1 2-.3l-2.8 6.7z"/><path d="M198.1 73.9a2.4 2.4 0 0 1-.4 1.9 2.8 2.8 0 0 1-1.4.9l-2 .5a4.8 4.8 0 0 0-1.8.6 55.8 55.8 0 0 1-5.9-.9 22.8 22.8 0 0 1-5.4-1.8 15.4 15.4 0 0 1-4.4-3.3 16.1 16.1 0 0 1-3.3-5.1 6.9 6.9 0 0 0 .9-4.9c-.2-1.8-.5-3.6-.8-5.3a14 14 0 0 1 .1-4.6c.4-1.5 1.6-2.6 3.7-3.5a7.2 7.2 0 0 1 .1-2.5 2.5 2.5 0 0 0-.8-2.3 17.9 17.9 0 0 0-6.5 3.6 42.3 42.3 0 0 0-5.3 5.1l-5 5.6a35.7 35.7 0 0 1-5.4 4.9 10.3 10.3 0 0 1-3-.2 3.1 3.1 0 0 0-2.6.9 2.6 2.6 0 0 0 .6 1.3 6 6 0 0 1 .6 1.1 2 2 0 0 1 .3 1.1 1.9 1.9 0 0 1-.7 1.3 13 13 0 0 1-2.3 1.8l-2.4 1.5a7.7 7.7 0 0 0-1.8 1.8 5 5 0 0 0-.8 2.9 1.5 1.5 0 0 0-1.1-.2 2.1 2.1 0 0 0-1 .6 2.8 2.8 0 0 0-.9 1l-.9.8c-.1.4-.1.7.1.9l.8.8a2.4 2.4 0 0 1-1.2 1.5 2.2 2.2 0 0 1-1.4 0 4.6 4.6 0 0 1-1.6-.7l-1.5-.8a25.3 25.3 0 0 1-.4-3.2 20.5 20.5 0 0 1 .1-3.5 10.1 10.1 0 0 1 .9-3.4 6.1 6.1 0 0 1 1.9-2.6l.6-.4.5-.5a4.7 4.7 0 0 0 1.2-2c.2-.8.4-1.6.5-2.3l.6-2.3a4.6 4.6 0 0 1 1.4-2 5.1 5.1 0 0 1 0-3 10.5 10.5 0 0 1 1.3-2.6l1.6-2.4a7.9 7.9 0 0 0 1-2.7 1.7 1.7 0 0 0 0-1v-1a3.4 3.4 0 0 1 .4-2.6 4 4 0 0 1 1.4-1.5l2-1.3a5.3 5.3 0 0 0 1.7-1.9 6.2 6.2 0 0 1 3.7 4 20 20 0 0 1 .4 5.6 7.2 7.2 0 0 0-2.8 3.2 18.5 18.5 0 0 0-1.3 4c.2.5.3.7.6.7a1.2 1.2 0 0 0 .8-.1l1-.4.8-.2a67.7 67.7 0 0 0 7.6-5.9 24 24 0 0 0 5.9-7.6 36.8 36.8 0 0 0 5.8-3.4 23.1 23.1 0 0 1 6.1-3l2.5-2.4c.3.6.7.7 1.2.4l1.5-1.1a2.8 2.8 0 0 1 1.5-.8c.4-.1.9.4 1.3 1.5a9.2 9.2 0 0 1 .5 5.4 25 25 0 0 1-1.6 5.1c-.8 1.6-1.5 3.3-2.3 5a14.4 14.4 0 0 0-1.4 5.2v1.4a7.1 7.1 0 0 1-.1 1.4c-.2 1.5-.3 3.1-.6 4.8a10.9 10.9 0 0 0 .3 4.8A7.1 7.1 0 0 0 184 69l3 2.9h1.5l1.4.5a3 3 0 0 0 1.3.1 1.6 1.6 0 0 0 1.3-.7 1.4 1.4 0 0 1 1.4.1 5.5 5.5 0 0 1 1.4.9 3.8 3.8 0 0 0 1.3.9 1.6 1.6 0 0 0 1.5.2zM135.8 135.8a20.3 20.3 0 0 1-1.2 5 8.6 8.6 0 0 1-1.9 2.9 17 17 0 0 1-2.8 2.1 47.5 47.5 0 0 0-4 2.9l-1.6 1.2-1.5 1.3a31.3 31.3 0 0 0-5.2 2.1l-6.4 2.8c-2.1 1-4.2 1.8-6.1 2.5a12 12 0 0 1-4.8.9 3 3 0 0 1-2.2 1l-2.4.3a12.7 12.7 0 0 0-2.8.2 3.9 3.9 0 0 0-2.5 1.2l-.3.3-.3.4a4 4 0 0 1-2.4 1.5 6.7 6.7 0 0 1-2.4-.4l-2.4-1.2a8.6 8.6 0 0 0-2.4-1.1 4.2 4.2 0 0 0-2.5-.1 4.2 4.2 0 0 0-2.5 1.7 3.1 3.1 0 0 0-2.4-2.2 16.5 16.5 0 0 0-3.2-.4 16.6 16.6 0 0 1-3.2-.3 2.6 2.6 0 0 1-2-2l-2.2-1.9-.3.3a4.7 4.7 0 0 0-.9 1.2 7.5 7.5 0 0 1-.7 1.2l-1.8 2.5a14.5 14.5 0 0 1-2.2 2.1 13 13 0 0 1-2.6 1.4 6 6 0 0 1-3 .2 8.3 8.3 0 0 1 1.4-4.6l2.8-4.2a10.5 10.5 0 0 0 1.7-4.3c.3-1.5-.3-3-1.8-4.6a4.5 4.5 0 0 0-1.3-2.9l-2.3-2.9a6.1 6.1 0 0 1-1.2-2.8c-.1-1 .5-1.9 1.9-2.8a1.8 1.8 0 0 1-1.3-.7 2.7 2.7 0 0 1 .3-1.2c.1-.3.3-.7.4-1.1l1.4-.2 1.2-.5H55a2.2 2.2 0 0 1 .9 1 7.8 7.8 0 0 1 .5 1.4l.6 1.5a15.3 15.3 0 0 0 2.1 4A31.7 31.7 0 0 0 62 144l.3.3c0-.1.1-.3.4-.6l1-.9.9-.9.7-.6 2.4-2.2a21.3 21.3 0 0 0 2.1-2.2 10.8 10.8 0 0 0 1.4-2.6 10.6 10.6 0 0 0 .4-3.3 75.1 75.1 0 0 0 6.5-5l6.5-5.2a63.6 63.6 0 0 1 6.9-4.6 24.4 24.4 0 0 1 7.7-2.8 7.6 7.6 0 0 0 2.2 2.7l2.5 1.9a10.2 10.2 0 0 1 2.2 2.4 8.9 8.9 0 0 1 1.5 3.8 22.6 22.6 0 0 1 0 8.6 58.9 58.9 0 0 1-2.3 8.4l-1.5 5.2a20 20 0 0 0-.7 5.4l.8.2a4.6 4.6 0 0 1 2.1-1.6l2.5-.4 2.5-.4a3 3 0 0 0 2.1-1.5 3.4 3.4 0 0 0 2.6.1 14.9 14.9 0 0 0 2.4-1.4 13 13 0 0 0 2.3-1.8 8.5 8.5 0 0 1 2.5-1.3v-.8a12.2 12.2 0 0 1 3.3-1.8l2.5-1.1a7.9 7.9 0 0 0 2.4-1.5 16.6 16.6 0 0 0 2.6-3.2h1.2a1 1 0 0 1 .9.5zm-37-10.6l-1.2-.3-1.1-.5-1.8-1a2.5 2.5 0 0 0-2 .3v.2h-.1a79.1 79.1 0 0 0-10.1 9.1c-3 3.2-6.3 6.5-9.7 9.6l-.9-1a3.4 3.4 0 0 0-.8 2 14.8 14.8 0 0 0-.1 2.1 11 11 0 0 1-.2 1.8 3.1 3.1 0 0 1-1.3 1.6l-.3.2q.5 1.5 1.2 1.8a2.6 2.6 0 0 0 1.7.3h1.8a1.7 1.7 0 0 1 1.4.3l.4.6a2.5 2.5 0 0 1 .1.8h2.3a6.9 6.9 0 0 1 2.5-.1c.9.1 1.4.7 1.6 1.7l4.3-1.8a8.3 8.3 0 0 0 3.6-3.1l.8.7h.3a10.5 10.5 0 0 0 4.2-4.6 29.4 29.4 0 0 0 2.3-6.7 46.9 46.9 0 0 0 .9-7.3c.1-2.7.2-4.8.2-6.7z"/><path d="M204.8 129.8l-1.4 1.5-.8 1-.9 1-1.4 1.6-1.6 1.8a9.1 9.1 0 0 1-1.7 1.7 2.2 2.2 0 0 0-2 .3 9.3 9.3 0 0 0-1.3 1.5l-1 1.5a1.8 1.8 0 0 1-1.3.6 38.2 38.2 0 0 1-5.1 2.3 17.5 17.5 0 0 0-4.8 3l-.9-.9-11.1 5.3-1 .7-1.1.7a42.3 42.3 0 0 1-4.8 2.3l-5 1.9-1.3.4q.8 2.1 0 3a6.5 6.5 0 0 1-2.5 1.2l-3.5.5a6 6 0 0 0-3 .7l-2.6-.2-2.7.3a13.2 13.2 0 0 1-2.7.2l-2.8-.3h-.2a4.2 4.2 0 0 1-3.2.4 8.4 8.4 0 0 1-2.4-1.6 14.3 14.3 0 0 1-1.9-2.7 27.5 27.5 0 0 0-1.9-2.8l-1.6-2.4a21.1 21.1 0 0 1-1.6-3.4 12.5 12.5 0 0 1-.9-3.7 5 5 0 0 1 .8-3.2 14.6 14.6 0 0 0 1.6-3 10.6 10.6 0 0 0 .6-3.7c0-.5-.1-1-.1-1.4s-.1-.9-.1-1.4h2.4a1.3 1.3 0 0 0 1-.4 2 2 0 0 0 .4-1.3 1.5 1.5 0 0 0-.4-.9 1.3 1.3 0 0 1-.5-.6 9.8 9.8 0 0 1 1.2-1.5 5.3 5.3 0 0 0 1-1.2 6.1 6.1 0 0 0 .7-1.4 5.7 5.7 0 0 0-.1-2.2 16.8 16.8 0 0 1 3-4c1.2-1.1 2.4-2.2 3.7-3.2l3.9-3.1a29.2 29.2 0 0 0 3.8-3.2q2.1.9 3.3 0a19.2 19.2 0 0 0 2.2-1.8 10.1 10.1 0 0 1 1.9-1.7c.6-.4 1.5-.2 2.5.6l.2.2c1.9-1.9 3.9-2.8 5.8-2.6a10.1 10.1 0 0 1 5 1.9 7.3 7.3 0 0 1 2.7 3.7c.5 1.4.1 2.3-1.1 2.8a4.5 4.5 0 0 1 .3 5.5 28.5 28.5 0 0 0-1.7 2.6l-1.4 2.9c-.7 1.6-1.5 3.1-2.3 4.6a11.9 11.9 0 0 1-3.7 3.7c-1.2-.4-2.1-.3-2.6.4a6.8 6.8 0 0 0-1 2.1 5.4 5.4 0 0 1-.7 1.7c-.3.4-.9.3-1.8-.4l-.2-.2-.2.2a6.2 6.2 0 0 0-1.4 1.9 3.4 3.4 0 0 1-1.3 1.6l-2-.5-2-.5a5.8 5.8 0 0 1-.9 3.5 6.3 6.3 0 0 1-2.2 2.1 13.6 13.6 0 0 1-3 1.3l-3.3 1.2a11.7 11.7 0 0 0-3.1 1.7 6.5 6.5 0 0 0-2.3 2.8 3.8 3.8 0 0 0 2.6 1.3h3.3l3.4-.2a4.8 4.8 0 0 1 2.9.9h.2a21.5 21.5 0 0 0 5-1.2l4.6-1.9 4.7-2a28.3 28.3 0 0 1 5-1.3 1.8 1.8 0 0 0 1.4 1h1.8v-.2a5.7 5.7 0 0 1 .4-1.4 4.9 4.9 0 0 1 .6-1.3 5.2 5.2 0 0 1 1.8-1.8 9.4 9.4 0 0 1 2.3-1l2.6-.4 2.8-.3h.2v-.3a3.7 3.7 0 0 1 1.1-1.8l1.5-.7 1.7-.3 1.8-.6a2.9 2.9 0 0 0 3.1-.5l2.5-2.2.8 1.1.4-.4 2.4-2.3 1.5-1.3 1.8-1.2 2.8-1.7 2.9-1.9 2.8-2.2a.7.7 0 0 1 .5.8v1.1c0 .2-.1.4-.1.7a.6.6 0 0 0 .3.5zm-44-13.3h-.3a7.9 7.9 0 0 0-3.7-1.1 4.4 4.4 0 0 0-2.7.9 10.7 10.7 0 0 0-2.3 2 14.5 14.5 0 0 1-2.1 2.2 6.1 6.1 0 0 1-2.6 1.5 5 5 0 0 1-3.6-.1l-.6 3.4c-.2 1.1-.3 2.2-.4 3.3a8.5 8.5 0 0 0-2.8 1.8 23.3 23.3 0 0 0-1.7 2.6 25.2 25.2 0 0 0-1.2 2.9 16.4 16.4 0 0 1-1.6 2.9l.4.6c.3-.2.6-.1 1 .3l.7.7a9.7 9.7 0 0 1 3.2-2.8l4-2.2 4-2.2a7.8 7.8 0 0 0 2.9-3.1 8.5 8.5 0 0 0 5.1-3.8 32.8 32.8 0 0 0 2.8-6 17.8 17.8 0 0 0 .8-1.8 5.3 5.3 0 0 0 .7-2z"/><path d="M247.9 158.5a2.6 2.6 0 0 1-.4 1.9 3.1 3.1 0 0 1-1.5 1l-1.9.5a4.8 4.8 0 0 0-1.8.6l-6-1a15.8 15.8 0 0 1-5.3-1.8 17.1 17.1 0 0 1-4.4-3.2 16.2 16.2 0 0 1-3.4-5.1 7 7 0 0 0 1-4.9c-.3-1.9-.6-3.6-.8-5.3a12.2 12.2 0 0 1 .1-4.7c.3-1.4 1.5-2.5 3.7-3.4a5.3 5.3 0 0 1 0-2.5 2.4 2.4 0 0 0-.8-2.4 22.7 22.7 0 0 0-6.5 3.6 62.6 62.6 0 0 0-5.2 5.1c-1.7 1.9-3.4 3.7-5 5.6a37.1 37.1 0 0 1-5.5 5 14.6 14.6 0 0 1-2.9-.2 2.6 2.6 0 0 0-2.6.9 2.1 2.1 0 0 0 .5 1.3 6.1 6.1 0 0 1 .7 1 2.7 2.7 0 0 1 .3 1.2c0 .4-.3.8-.8 1.3a9.1 9.1 0 0 1-2.3 1.7l-2.3 1.5a8.5 8.5 0 0 0-1.9 1.9 5 5 0 0 0-.7 2.9 1.7 1.7 0 0 0-1.2-.2 2.7 2.7 0 0 0-1 .6l-.9.9-.8.9a.7.7 0 0 0 .1.9l.7.8c-.3.8-.6 1.3-1.1 1.4a2.6 2.6 0 0 1-1.5.1l-1.6-.7-1.4-.8a24 24 0 0 1-.5-3.2 21.7 21.7 0 0 1 .2-3.6 13.2 13.2 0 0 1 .8-3.3 6.6 6.6 0 0 1 1.9-2.7l.7-.4.5-.4a5.5 5.5 0 0 0 1.2-2.1c.2-.7.3-1.5.5-2.3a11.2 11.2 0 0 1 .6-2.3 4.1 4.1 0 0 1 1.3-1.9 4.6 4.6 0 0 1 .1-3.1 14.2 14.2 0 0 1 1.2-2.5c.6-.8 1.1-1.6 1.6-2.4a5.9 5.9 0 0 0 1-2.8 3.1 3.1 0 0 0 .1-1c0-.3-.1-.6-.1-1a4.1 4.1 0 0 1 .4-2.6 5.4 5.4 0 0 1 1.5-1.5l1.9-1.2a5.5 5.5 0 0 0 1.8-1.9 6.1 6.1 0 0 1 3.6 4 19.7 19.7 0 0 1 .4 5.6 7.3 7.3 0 0 0-2.8 3.2 16.4 16.4 0 0 0-1.2 4 1 1 0 0 0 .5.7h.9l.9-.4.9-.2c2.5-1.8 5-3.8 7.6-6a26.4 26.4 0 0 0 5.9-7.5 42.5 42.5 0 0 0 5.8-3.5 21.4 21.4 0 0 1 6.1-2.9l2.4-2.4c.4.5.8.7 1.3.3l1.5-1.1a3.1 3.1 0 0 1 1.4-.7c.5-.1.9.4 1.3 1.5a9.8 9.8 0 0 1 .6 5.3 21.8 21.8 0 0 1-1.7 5.1c-.7 1.7-1.5 3.4-2.3 5.1a16.1 16.1 0 0 0-1.4 5.2v1.3a7.6 7.6 0 0 1-.1 1.5c-.1 1.4-.3 3.1-.5 4.8a10.5 10.5 0 0 0 .2 4.7 6.9 6.9 0 0 0 2.3 3.4 26.9 26.9 0 0 1 2.9 3 3.8 3.8 0 0 1 1.5.1l1.5.4a3 3 0 0 0 1.3.2 2.4 2.4 0 0 0 1.3-.7 1.4 1.4 0 0 1 1.4.1 3.8 3.8 0 0 1 1.3.9l1.4.9a1.9 1.9 0 0 0 1.5-.1zM330 85.5a4.4 4.4 0 0 1-3.3 1.6 14.5 14.5 0 0 1-3.6-.2l-3.4-.3a3.4 3.4 0 0 0-2.8 1.8 8.3 8.3 0 0 0-3.5-.2l-3.7.7-3.9.9a15.8 15.8 0 0 1-3.8.4l-1.8-1.8a3.4 3.4 0 0 1-2.1 1.4 3.2 3.2 0 0 1-2.6-.6 7.2 7.2 0 0 1-4.5 1.4l-4.3-.2a9 9 0 0 0-4 .9c-1.2.6-2.3 2.1-3.1 4.4a48.4 48.4 0 0 0-1.8 4.9c-.6 1.7-1.2 3.4-1.7 5l-4.8 12.6c-1.6 4.1-3.4 8.2-5.3 12.3a61.8 61.8 0 0 0 .2 9.6l.9 9.7a6.1 6.1 0 0 0-.2 2.7 9 9 0 0 0 .7 2.7 12.3 12.3 0 0 0 1.2 2.6 20.9 20.9 0 0 0 1.6 2.2l1.9-1.8 2.7 3.7a30.1 30.1 0 0 1 2.5-2.9l3-2.9a17.9 17.9 0 0 1 3.4-2.2 11.2 11.2 0 0 1 3.5-1.2l1.4-1.6a6.7 6.7 0 0 1 1.4-1.5 8 8 0 0 1 1.6-.8 3.5 3.5 0 0 1 2.2.2 23.9 23.9 0 0 0 6.1-4.9l5.3-5.8a47.3 47.3 0 0 1 5.6-5.4 16.2 16.2 0 0 1 6.8-3.4 69.6 69.6 0 0 1-6.4 12 63.4 63.4 0 0 1-8.9 10.3 12.4 12.4 0 0 1-3.2 2.7l-1.8 1.1-1.8 1.1c-1.9 1.3-3.7 2.7-5.5 4.1a57.9 57.9 0 0 0-5.1 4.8 1.4 1.4 0 0 0-.9-.8 2.2 2.2 0 0 0-1.2-.2h-1.4a2.4 2.4 0 0 1-1.2 0 15.7 15.7 0 0 1-5.2 2.4 11.7 11.7 0 0 1-5.8.3l-2.1-.8a10.9 10.9 0 0 1-1.9-1 18.3 18.3 0 0 1-6.2-6.8 22.2 22.2 0 0 1-2.3-9l-.8-.8a5.6 5.6 0 0 0 1.7-2.6 5.7 5.7 0 0 0 .2-2.6 15.1 15.1 0 0 0-.5-2.8 25 25 0 0 1-.5-2.9 7.6 7.6 0 0 1 .1-1.6c.1-.4.2-.9.4-1.5.5-2.2 1.1-4.5 1.6-6.6s1-4.4 1.5-6.6c1.5-5.3 3.1-10.7 5-16s3.8-10.5 5.9-15.6a10.5 10.5 0 0 0-3.4-.8l-3.5-.2h-3.5a13.7 13.7 0 0 1-3.4-.7l-.8-.4h-.8l-1.5.2-1.9.2a5.2 5.2 0 0 1-1.8-.3 1.1 1.1 0 0 1-.9-.9V86a3.3 3.3 0 0 1 .8-2.3 2.6 2.6 0 0 1 1.6-.7l2.1-.2a5.7 5.7 0 0 0 2.2-.7l5.6.9a18.1 18.1 0 0 0 5.2-.1 16.9 16.9 0 0 0 4.9-1.3 19.6 19.6 0 0 0 4.7-3.2 28.7 28.7 0 0 0 2.6-7.1c.5-2.5 1.2-5 1.9-7.4a32.5 32.5 0 0 1 3-6.8 14.1 14.1 0 0 1 5.5-5.3 5.9 5.9 0 0 1 3 .4l2.5 1.4a28.1 28.1 0 0 0-.8 3.1c-.2 1-.5 2.1-.7 3.2l-.9 3.1a10.7 10.7 0 0 1-1.6 2.7 2.7 2.7 0 0 1 1.6 1.3 3.1 3.1 0 0 1-.2 1.6 17.4 17.4 0 0 1-1.1 1.8 3.4 3.4 0 0 0-.7 1.7 2.7 2.7 0 0 0-2 1.5 7.4 7.4 0 0 1-1.7 2.1 2.7 2.7 0 0 0 .4 3.1l2.1 2.4a2.5 2.5 0 0 0 1.9.1l1.8-.6a4 4 0 0 1 1.5-.3 1.9 1.9 0 0 1 1.4.8 2.6 2.6 0 0 1 2.1-1 8.3 8.3 0 0 1 2.1.6 7.8 7.8 0 0 0 2.2.3c.7-.1 1.3-.6 2-1.7a3.4 3.4 0 0 1 2.4-.3l2 .8 1.9.8a2.8 2.8 0 0 0 1.9-.4 19.6 19.6 0 0 0 3.5.1l4-.4 3.9-.8a33.4 33.4 0 0 1 3.5-.8 5.1 5.1 0 0 1 2 1.7 2.6 2.6 0 0 1 .1 1.5 12.4 12.4 0 0 1-.4 1.6 3.8 3.8 0 0 0 .2 2.3z"/><path d="M353.9 143.6a8.5 8.5 0 0 1-.4 3.3 5 5 0 0 1-1.1 1.6l-1.1 1.2a4.8 4.8 0 0 0-.5 2.4 35.1 35.1 0 0 1-3.9 3.9 21.7 21.7 0 0 1-2.9 2l-3.1 1.8a53.2 53.2 0 0 0-4.7 3h-.7c-.2 1-.6 1.7-1.1 1.8a5.7 5.7 0 0 1-1.8.3l-2 .2a2.9 2.9 0 0 0-1.6 1.9 7.2 7.2 0 0 1-3.1.4h-6.6a2.4 2.4 0 0 0-.9.6 3.9 3.9 0 0 1-1 .8 2 2 0 0 1-1.1.3q-.4 0-.9-.9a4.5 4.5 0 0 1-2.3 0 6.1 6.1 0 0 1-2.1-1.2 13.7 13.7 0 0 1-1.7-1.7l-1.6-1.9-1.1-1.2a12.7 12.7 0 0 1-1.2-1 7.4 7.4 0 0 1-1.7-3 11.5 11.5 0 0 1-.6-3.7 16 16 0 0 1 .1-3.8 14.9 14.9 0 0 1 .6-3.4 5.6 5.6 0 0 0 1.3-2.2 23.3 23.3 0 0 0 .7-2.5 18.3 18.3 0 0 1 .6-2.5 6.1 6.1 0 0 1 1.3-2.2 7.5 7.5 0 0 1 .5-2.6 12.7 12.7 0 0 1 1.3-2.2 11.2 11.2 0 0 1 1.8-2l1.9-1.7h3.3a3.5 3.5 0 0 1 1.2.7 2.7 2.7 0 0 1 .9 1.5c.5 1.9.4 3.5-.4 4.6a27 27 0 0 1-2.5 3.4 15.8 15.8 0 0 0-2.2 3.3c-.6 1.1-.4 2.6.4 4.4q-1.2 0-1.5.6a3.5 3.5 0 0 0-.6 1.4 7.5 7.5 0 0 1-.4 1.6 2.2 2.2 0 0 1-1.3 1 4.2 4.2 0 0 1 .7 2.3 15.3 15.3 0 0 0 .3 3 6.9 6.9 0 0 0 .9 2.3c.5.5 1.4.6 2.6.1a4.1 4.1 0 0 0 3.4.9h3.7a6.8 6.8 0 0 1 2.5-1l2 .2 2.1.5a4.6 4.6 0 0 0 2.5-.3q.4-1.8 1.5-2.1a7.8 7.8 0 0 1 2.1-.4 6.5 6.5 0 0 0 2-.4q.9-.3 1.2-2.1a3 3 0 0 1 2-1.2l2.4-.4a5 5 0 0 0 2.3-.9 4.9 4.9 0 0 0 1.4-2.7l2.6-2.1 1.3-1.1 1.4-1zM333.3 96a3.2 3.2 0 0 0-2.2 2.2 16.1 16.1 0 0 0-.1 3.1 26.6 26.6 0 0 1-.2 3q-.2 1.4-2.1 1.8a13.3 13.3 0 0 0-1.9-2.4l-2.2-2.2a17.7 17.7 0 0 1-1.7-2.4 6.2 6.2 0 0 1-.4-3.1l5.3-6.2a5.3 5.3 0 0 1 2 1.1 4.7 4.7 0 0 1 1.3 1.5 16.2 16.2 0 0 1 1 1.8 18.8 18.8 0 0 0 1.2 1.8z"/><path d="M463.6 143.8L461 146a7.7 7.7 0 0 0-2.2 2.4 18.2 18.2 0 0 0-1 1.9 5.4 5.4 0 0 1-.9 1.5 2.7 2.7 0 0 1-1.2.9 6.9 6.9 0 0 1-2.2.3c0 .2-.4.6-1.1 1.3l-2.4 2.1-2.4 2.2c-.7.6-1 1.1-1 1.3l-1-.5h-1.2a7.5 7.5 0 0 0-2.3.7 11.1 11.1 0 0 0-2.7 1.3 7 7 0 0 0-2 2.2h-.4a6.9 6.9 0 0 0-3.2-.1l-3.3.2a7.2 7.2 0 0 1-5-1 14.6 14.6 0 0 1-3.4-4.6 7.7 7.7 0 0 1-.7-1.6l-.6-1.7v-.4a2.8 2.8 0 0 0 1.6-2.3 10.1 10.1 0 0 0-.1-3c-.1-1.1-.2-2.1-.2-3.1a2.8 2.8 0 0 1 1.1-2.5 4 4 0 0 1 .1-3.2l1.6-2.9a5.7 5.7 0 0 0 .7-2.7c0-.8-.8-1.7-2.3-2.7a33.3 33.3 0 0 0-4.6 2.4l-4.4 3-4.4 3a22.5 22.5 0 0 1-4.6 2.5 30.8 30.8 0 0 1-4.7 4.2c-1.6 1.2-3.2 2.4-4.7 3.7a24 24 0 0 0-4.1 4.3 14.7 14.7 0 0 0-2.8 5.9 2.7 2.7 0 0 0-1.1-.9l-1.4-.4a7.3 7.3 0 0 1-1.7-.7l-1.4-1.1v-.2c.7-1.9 1.4-3.8 2.3-5.7a14.6 14.6 0 0 0 1.2-5.7 6.5 6.5 0 0 0-.2-2 11.1 11.1 0 0 1-.2-1.9 8.6 8.6 0 0 1 .7-3.6 25.9 25.9 0 0 1 1.4-2.9l1.5-2.7a7.3 7.3 0 0 0 .7-2.9 5.3 5.3 0 0 0-.6-2.3 6.9 6.9 0 0 0-1.3-2 5.9 5.9 0 0 0-3 .4 16.2 16.2 0 0 0-2.8 1.1l-2.9 1.1a10.6 10.6 0 0 1-3.1.4l-4.6 4.4-4.7 4.3c-3.3 2.9-6.4 5.9-9.5 9a36.8 36.8 0 0 0-7.4 10.6 11.7 11.7 0 0 0-.9 2.4 9.9 9.9 0 0 1-.9 2.4c0 .2-.1.3-.2.5h-.5a1.8 1.8 0 0 0-1.6.6 5.8 5.8 0 0 0-.5 1.4 7.5 7.5 0 0 1-.4 1.6 1.2 1.2 0 0 1-.9.9 1.7 1.7 0 0 1-1.7-.3 7.5 7.5 0 0 1-1.3-1.1 7.7 7.7 0 0 1-1.2-3.5 10.2 10.2 0 0 1 .4-3.5 15.1 15.1 0 0 1 1.4-3.5c.6-1.1 1.1-2.2 1.7-3.2a40.2 40.2 0 0 0 2.4-4.6 12.6 12.6 0 0 0 1.1-5.1 6.4 6.4 0 0 0-.3-2c-.1-.6-.3-1.2-.4-1.9l2.3-1.6a4.9 4.9 0 0 1-.6-1.3v-1.1a3.8 3.8 0 0 0 .1-1 1.6 1.6 0 0 0-.1-1v-.4l.8-.9c-.1-2.4-.2-4.6-.2-6.6a17.5 17.5 0 0 0-1.3-6.5 2.6 2.6 0 0 1 2.9-.7l2.8 1.6h.1a18 18 0 0 1 1.5 3.1c.4 1.2.7 2.4 1 3.7l.6 3.9c.1 1.3.2 2.4.2 3.4a1.9 1.9 0 0 1-.1.8v.8l-.7.6 1.2 1.1a1.5 1.5 0 0 0 1.4.4 4 4 0 0 1 2-2.5 15.2 15.2 0 0 1 2.8-.9 10 10 0 0 0 2.6-.9 2.6 2.6 0 0 0 1.1-2.5 3.5 3.5 0 0 0-.1-.6l.2-.2a60.5 60.5 0 0 1 6.1-5.4 23.7 23.7 0 0 1 6.6-3.6 19.3 19.3 0 0 1 7.2-.9 21.7 21.7 0 0 1 8.2 2.3h.2l1.1 4.5-.7.7a4.7 4.7 0 0 1 .8 3.5 27.4 27.4 0 0 1-.9 3.9l-1.2 3.5a2.7 2.7 0 0 0 .1 2.4 2.3 2.3 0 0 0 2 .7l2.3-.3a7.1 7.1 0 0 1 2.4-2l3-1.6 2.8-1.5a2.4 2.4 0 0 0 1.2-1.8 4.3 4.3 0 0 0 2.8-.1 3.5 3.5 0 0 0 1.7-1.5l1.2-2a9.4 9.4 0 0 1 1.2-2.2 5 5 0 0 1 1.7-1.5 4.4 4.4 0 0 1 2.9-.3 15.8 15.8 0 0 1 5.8-3.6 26.2 26.2 0 0 1 6.8-1.2 3.5 3.5 0 0 1 3.4 1.4 7.5 7.5 0 0 1 .9 3.7 11.2 11.2 0 0 1-1.3 5.3c-.8 1.7-1.8 3.5-2.8 5.2a37.1 37.1 0 0 0-2.9 5.6 14.5 14.5 0 0 0-1.3 6.3v1.1c0 .6.1 1.1.1 1.6s.2 1.1.3 1.5a1.3 1.3 0 0 0 .5.9l.7.4-.5.4a23.1 23.1 0 0 1 4.3.9 6.2 6.2 0 0 0 4.2-.4l1.3-.3 1.3-.3c.7-.1 1.1-.4 1.2-.8a5 5 0 0 1 .8-1.4 4.8 4.8 0 0 1 1.9-1.3 11.8 11.8 0 0 1 4.4-.6v-1.7a11.5 11.5 0 0 0 3.7-1.6 29 29 0 0 1 2.9-1.9 13.4 13.4 0 0 1 3.2-1.3 16 16 0 0 1 4.4 0z"/><path d="M506.8 143.6a7.2 7.2 0 0 1-.3 3.3 5 5 0 0 1-1.1 1.6l-1.2 1.2a4.9 4.9 0 0 0-.4 2.4 44.6 44.6 0 0 1-4 3.9 21.2 21.2 0 0 1-2.8 2l-3.1 1.8a41.6 41.6 0 0 0-4.7 3h-.7c-.3 1-.6 1.7-1.2 1.8a4.8 4.8 0 0 1-1.8.3l-1.9.2a2.7 2.7 0 0 0-1.6 1.9 7.3 7.3 0 0 1-3.1.4h-6.6a2.4 2.4 0 0 0-.9.6l-1 .8a2.3 2.3 0 0 1-1.1.3c-.3 0-.7-.3-.9-.9a4.9 4.9 0 0 1-2.4 0 5.6 5.6 0 0 1-2-1.1l-1.8-1.7-1.5-1.9-1.2-1.2-1.1-1a6.4 6.4 0 0 1-1.7-3 15.1 15.1 0 0 1-.7-3.7c0-1.3 0-2.6.1-3.8a22.4 22.4 0 0 1 .7-3.4 5.6 5.6 0 0 0 1.3-2.2 11.4 11.4 0 0 0 .6-2.5 18.2 18.2 0 0 1 .7-2.5 5 5 0 0 1 1.3-2.2 7.5 7.5 0 0 1 .5-2.6 8.5 8.5 0 0 1 1.3-2.2 11.2 11.2 0 0 1 1.8-2c.6-.6 1.3-1.1 1.8-1.7h3.3l1.3.7a2.7 2.7 0 0 1 .8 1.5 5.8 5.8 0 0 1-.3 4.6c-.8 1.2-1.6 2.3-2.5 3.4a21.9 21.9 0 0 0-2.3 3.3c-.5 1.1-.4 2.6.5 4.4a1.8 1.8 0 0 0-1.6.6 5.8 5.8 0 0 0-.5 1.4 7.5 7.5 0 0 1-.5 1.6 1.7 1.7 0 0 1-1.3 1 3 3 0 0 1 .7 2.3c.1 1 .2 2 .4 3a5.3 5.3 0 0 0 .9 2.3c.5.5 1.3.6 2.6.1a4.1 4.1 0 0 0 3.4.9h3.6a7.2 7.2 0 0 1 2.6-1l2 .2 2 .5a5 5 0 0 0 2.6-.3q.4-1.8 1.5-2.1a7.8 7.8 0 0 1 2.1-.4 6.5 6.5 0 0 0 2-.4q.9-.3 1.2-2.1a2.8 2.8 0 0 1 2-1.2l2.4-.4a4.7 4.7 0 0 0 2.2-.9 4.4 4.4 0 0 0 1.5-2.7l2.6-2.1 1.3-1.1 1.4-1zM486.2 96a2.9 2.9 0 0 0-2.1 2.2c-.1 1-.2 2.1-.2 3.1a14.5 14.5 0 0 1-.1 3c-.2.9-.9 1.5-2.2 1.8a12.5 12.5 0 0 0-1.8-2.4c-.8-.7-1.5-1.5-2.2-2.2a11.8 11.8 0 0 1-1.7-2.4 5.2 5.2 0 0 1-.4-3.1l5.3-6.2a7.5 7.5 0 0 1 2 1.1 6.4 6.4 0 0 1 1.3 1.5l1 1.8a17.4 17.4 0 0 0 1.1 1.8z"/><path d="M578 129.8l-1.5 1.5-.8 1-.9 1-1.4 1.6-1.6 1.8a9.1 9.1 0 0 1-1.7 1.7 2.2 2.2 0 0 0-2 .3c-.4.5-.9.9-1.3 1.5l-1 1.5a1.4 1.4 0 0 1-1.2.6 38.2 38.2 0 0 1-5.1 2.3 18 18 0 0 0-4.9 3l-.9-.9-11 5.3-1.1.7-1.1.7a35.4 35.4 0 0 1-4.8 2.3l-4.9 1.9-1.4.4q.8 2.1 0 3a6.5 6.5 0 0 1-2.5 1.2l-3.5.5a6.3 6.3 0 0 0-3 .7l-2.6-.2-2.7.3a13.2 13.2 0 0 1-2.7.2l-2.8-.3h-.2a4 4 0 0 1-3.1.4 6.3 6.3 0 0 1-2.4-1.6 14.6 14.6 0 0 1-2-2.7 27.5 27.5 0 0 0-1.9-2.8l-1.6-2.4a35.4 35.4 0 0 1-1.6-3.4 16.6 16.6 0 0 1-.9-3.7 5 5 0 0 1 .8-3.2 14.6 14.6 0 0 0 1.6-3 10.6 10.6 0 0 0 .6-3.7 6.1 6.1 0 0 0-.1-1.4v-1.4h2.4a1.1 1.1 0 0 0 .9-.4c.3-.2.4-.7.4-1.3a1.1 1.1 0 0 0-.4-.9l-.5-.6 1.3-1.5 1-1.2a5.9 5.9 0 0 0 .6-1.4 5.7 5.7 0 0 0-.1-2.2 19.9 19.9 0 0 1 3-4c1.2-1.1 2.4-2.2 3.7-3.2l3.9-3.1a38.9 38.9 0 0 0 3.9-3.2 3 3 0 0 0 3.2 0 19.2 19.2 0 0 0 2.2-1.8 14.5 14.5 0 0 1 1.9-1.7c.6-.4 1.5-.2 2.5.6l.3.2c1.9-1.9 3.8-2.8 5.7-2.6a9.7 9.7 0 0 1 5 1.9 8.1 8.1 0 0 1 2.8 3.7 2 2 0 0 1-1.2 2.8 3.8 3.8 0 0 1 1.2 2.8 4.2 4.2 0 0 1-.9 2.7 26.3 26.3 0 0 0-1.6 2.6l-1.5 2.9c-.7 1.6-1.5 3.1-2.3 4.6a12.7 12.7 0 0 1-3.6 3.7c-1.3-.4-2.2-.3-2.6.4a5.1 5.1 0 0 0-1 2.1 9.1 9.1 0 0 1-.8 1.7c-.3.4-.9.3-1.8-.4l-.2-.2-.2.2a8.5 8.5 0 0 0-1.4 1.9 3.4 3.4 0 0 1-1.3 1.6l-2-.5-2-.5a5.8 5.8 0 0 1-.9 3.5 5.6 5.6 0 0 1-2.2 2.1 10.4 10.4 0 0 1-3 1.3l-3.3 1.2a11.7 11.7 0 0 0-3.1 1.7 6.5 6.5 0 0 0-2.3 2.8 3.9 3.9 0 0 0 2.7 1.3h3.3l3.3-.2a4.8 4.8 0 0 1 2.9.9h.2a21.5 21.5 0 0 0 5-1.2l4.7-1.9 4.6-2a28.3 28.3 0 0 1 5-1.3 1.8 1.8 0 0 0 1.4 1h1.8v-.2c.1-.5.3-1 .4-1.4a13.9 13.9 0 0 1 .6-1.3 5.2 5.2 0 0 1 1.8-1.8 11.5 11.5 0 0 1 2.3-1l2.6-.4 2.8-.3h.2v-.3a3.7 3.7 0 0 1 1.1-1.8l1.5-.7 1.7-.3 1.8-.6a3 3 0 0 0 3.2-.5l2.4-2.2.9 1.1.3-.4 2.4-2.3 1.5-1.3 1.8-1.2 2.8-1.7 2.9-1.9 2.8-2.2c.4.2.6.4.6.8v1.1a1.4 1.4 0 0 0-.2.7c.2.2.2.4.4.5zm-44.1-13.3h-.3a7.9 7.9 0 0 0-3.7-1.1 4.4 4.4 0 0 0-2.7.9 8.3 8.3 0 0 0-2.2 2 22.8 22.8 0 0 1-2.2 2.2 6.1 6.1 0 0 1-2.6 1.5 5 5 0 0 1-3.6-.1l-.6 3.4c-.1 1.1-.3 2.2-.3 3.3a9 9 0 0 0-2.9 1.8 23.3 23.3 0 0 0-1.7 2.6l-1.2 2.9a11.8 11.8 0 0 1-1.6 2.9l.5.6c.2-.2.6-.1.9.3l.8.7a8.4 8.4 0 0 1 3.1-2.8l4-2.2 4-2.2a7.8 7.8 0 0 0 2.9-3.1 8 8 0 0 0 5.1-3.8 41.5 41.5 0 0 0 2.9-6 11.2 11.2 0 0 1 .8-1.8 7.4 7.4 0 0 0 .6-2z"/><path d="M621 158.5a2.6 2.6 0 0 1-.4 1.9 3.1 3.1 0 0 1-1.5 1l-1.9.5a4.8 4.8 0 0 0-1.8.6l-6-1a15.8 15.8 0 0 1-5.3-1.8 17.1 17.1 0 0 1-4.4-3.2 18.1 18.1 0 0 1-3.4-5.1 6.5 6.5 0 0 0 1-4.9c-.3-1.9-.5-3.6-.8-5.3a14.6 14.6 0 0 1 .1-4.7c.3-1.4 1.6-2.5 3.7-3.4a7 7 0 0 1 0-2.5 2.4 2.4 0 0 0-.8-2.4 22.1 22.1 0 0 0-6.4 3.6 63.8 63.8 0 0 0-5.3 5.1l-5 5.6a37.1 37.1 0 0 1-5.5 5 14.6 14.6 0 0 1-2.9-.2 2.6 2.6 0 0 0-2.6.9 2.9 2.9 0 0 0 .5 1.3 6.1 6.1 0 0 1 .7 1 2.7 2.7 0 0 1 .3 1.2c0 .4-.3.8-.8 1.3a8.7 8.7 0 0 1-2.2 1.7l-2.4 1.5a8 8 0 0 0-1.8 1.9 5 5 0 0 0-.8 2.9 1.7 1.7 0 0 0-1.2-.2 2.7 2.7 0 0 0-1 .6l-.9.9a3.6 3.6 0 0 1-.8.9.7.7 0 0 0 .1.9l.7.8c-.3.8-.6 1.3-1.1 1.4a2.5 2.5 0 0 1-1.5.1l-1.6-.7-1.4-.8a14.7 14.7 0 0 1-.4-3.2 14.5 14.5 0 0 1 .1-3.6 13.2 13.2 0 0 1 .8-3.3 6.6 6.6 0 0 1 1.9-2.7l.7-.4.5-.4a4.5 4.5 0 0 0 1.2-2.1 15.5 15.5 0 0 0 .5-2.3 11.2 11.2 0 0 1 .6-2.3 4.1 4.1 0 0 1 1.3-1.9 5.4 5.4 0 0 1 .1-3.1 14.2 14.2 0 0 1 1.2-2.5c.6-.8 1.1-1.6 1.6-2.4a7.5 7.5 0 0 0 1.1-2.8v-2a3.6 3.6 0 0 1 .3-2.6 5.4 5.4 0 0 1 1.5-1.5l1.9-1.2a5.5 5.5 0 0 0 1.8-1.9c2 1 3.3 2.3 3.6 4a16.6 16.6 0 0 1 .4 5.6 6.6 6.6 0 0 0-2.7 3.2 13.3 13.3 0 0 0-1.3 4 .9.9 0 0 0 .6.7h.8l.9-.4.9-.2c2.5-1.8 5.1-3.8 7.6-6a24.8 24.8 0 0 0 5.9-7.6 42.5 42.5 0 0 0 5.8-3.5 22.8 22.8 0 0 1 6.1-2.9l2.4-2.4c.4.5.8.7 1.3.3l1.5-1.1a3.7 3.7 0 0 1 1.4-.7c.5-.1.9.4 1.3 1.5a9 9 0 0 1 .6 5.3 21.8 21.8 0 0 1-1.7 5.1c-.7 1.7-1.5 3.4-2.3 5.1a15.9 15.9 0 0 0-1.3 5.2v1.3c0 .5-.1 1-.1 1.5s-.4 3.1-.6 4.8a10.5 10.5 0 0 0 .2 4.7 6.9 6.9 0 0 0 2.3 3.4 26.9 26.9 0 0 1 2.9 3 3.8 3.8 0 0 1 1.5.1l1.5.4a3 3 0 0 0 1.3.2 2.4 2.4 0 0 0 1.3-.7 1.4 1.4 0 0 1 1.4.1 3.8 3.8 0 0 1 1.3.9l1.4.9a1.9 1.9 0 0 0 1.5 0zM703.1 85.5a4.4 4.4 0 0 1-3.3 1.6 14.5 14.5 0 0 1-3.6-.2l-3.4-.3a3.4 3.4 0 0 0-2.8 1.8 8.2 8.2 0 0 0-3.5-.2l-3.7.7a27.4 27.4 0 0 1-3.9.9 15.8 15.8 0 0 1-3.8.4l-1.8-1.8a3.4 3.4 0 0 1-2.1 1.4 3.2 3.2 0 0 1-2.6-.6 7 7 0 0 1-4.4 1.4l-4.4-.2a9.3 9.3 0 0 0-4 .9c-1.2.6-2.3 2.1-3.1 4.4a48.4 48.4 0 0 0-1.8 4.9c-.6 1.7-1.2 3.4-1.7 5l-4.8 12.6a130.3 130.3 0 0 1-5.3 12.3 61.8 61.8 0 0 0 .2 9.6l.9 9.7a8 8 0 0 0-.2 2.7 9 9 0 0 0 .7 2.7 12.6 12.6 0 0 0 1.3 2.6 12.1 12.1 0 0 0 1.5 2.2l2-1.8 2.6 3.7 2.5-2.9 3-2.9a17.9 17.9 0 0 1 3.4-2.2 11.8 11.8 0 0 1 3.6-1.2l1.3-1.6a10.3 10.3 0 0 1 1.4-1.5l1.7-.8a3.2 3.2 0 0 1 2.1.2 23.9 23.9 0 0 0 6.1-4.9l5.3-5.8a47.3 47.3 0 0 1 5.6-5.4 16 16 0 0 1 6.9-3.4 70.2 70.2 0 0 1-6.5 12 63.4 63.4 0 0 1-8.9 10.3 13.7 13.7 0 0 1-3.1 2.7l-1.8 1.1-1.9 1.1c-1.9 1.3-3.7 2.7-5.5 4.1a57.9 57.9 0 0 0-5.1 4.8 1.5 1.5 0 0 0-.8-.8 2.7 2.7 0 0 0-1.3-.2h-1.3a2.8 2.8 0 0 1-1.3 0 15.7 15.7 0 0 1-5.2 2.4 11.7 11.7 0 0 1-5.8.3 9.1 9.1 0 0 1-2-.8 9.2 9.2 0 0 1-2-1 18.3 18.3 0 0 1-6.2-6.8 22.2 22.2 0 0 1-2.3-9l-.8-.8a5.6 5.6 0 0 0 1.7-2.6 5.7 5.7 0 0 0 .3-2.6 15.7 15.7 0 0 0-.6-2.8 13.5 13.5 0 0 1-.4-2.9 4.3 4.3 0 0 1 0-1.6c.1-.4.2-.9.4-1.5.5-2.2 1.1-4.5 1.6-6.6s1-4.4 1.6-6.6c1.4-5.3 3-10.7 4.9-16s3.9-10.5 5.9-15.6a10.5 10.5 0 0 0-3.4-.8l-3.4-.2h-3.6a13.7 13.7 0 0 1-3.4-.7l-.8-.4h-.8l-1.5.2-1.9.2-1.8-.4a1.1 1.1 0 0 1-.9-.9V86a3.8 3.8 0 0 1 .8-2.3 2.6 2.6 0 0 1 1.6-.7l2.1-.2a5.7 5.7 0 0 0 2.2-.7l5.7.9a17.4 17.4 0 0 0 5.1-.1 16.9 16.9 0 0 0 4.9-1.3 19.6 19.6 0 0 0 4.7-3.2 28.7 28.7 0 0 0 2.6-7.1c.6-2.5 1.2-5 2-7.4a27.9 27.9 0 0 1 2.9-6.8 14.1 14.1 0 0 1 5.5-5.3 5.9 5.9 0 0 1 3 .4l2.5 1.4a28.1 28.1 0 0 0-.8 3.1c-.2 1-.5 2.1-.7 3.2l-.9 3.1a10.7 10.7 0 0 1-1.6 2.7c.9.4 1.5.8 1.6 1.3a2.3 2.3 0 0 1-.2 1.6 17.4 17.4 0 0 1-1.1 1.8 3.4 3.4 0 0 0-.7 1.7 2.7 2.7 0 0 0-2 1.5 9.6 9.6 0 0 1-1.6 2.1 2.5 2.5 0 0 0 .3 3.1c.8.8 1.5 1.7 2.1 2.4a2.5 2.5 0 0 0 1.9.1l1.8-.6a4 4 0 0 1 1.5-.3 1.9 1.9 0 0 1 1.4.8 2.6 2.6 0 0 1 2.1-1 8.3 8.3 0 0 1 2.1.6l2.2.3a2.9 2.9 0 0 0 2-1.7 3.4 3.4 0 0 1 2.4-.3l2.1.8 1.8.8a2.8 2.8 0 0 0 1.9-.4 19.6 19.6 0 0 0 3.5.1l4-.4 3.9-.8a29.8 29.8 0 0 1 3.6-.8 4.6 4.6 0 0 1 1.9 1.7 2.6 2.6 0 0 1 .1 1.5 12.4 12.4 0 0 1-.4 1.6 3.8 3.8 0 0 0 .2 2.3z"/><path d="M749.8 129a3.2 3.2 0 0 1-.3 2.7 6.9 6.9 0 0 1-1.9 1.9l-2.7 1.6a9 9 0 0 0-2.4 1.5c-3.2.7-6.1 1.2-8.7 1.6l-8.5 1.2a7.5 7.5 0 0 1-2.6-.1 10.5 10.5 0 0 0-2.5-.1h-2.7a3.7 3.7 0 0 0-3.2 1.6 16.1 16.1 0 0 0-1.2 3.3 18 18 0 0 1-1.2 3.5 3.9 3.9 0 0 1-2.9 2.3.9.9 0 0 0 .2 1l.6.7a3.7 3.7 0 0 0-2.4 1.9c-.4 1-.7 1.9-1 2.8a5.8 5.8 0 0 1-1.3 2.3c-.5.7-1.5.9-3 .7a29.1 29.1 0 0 1-7.7 5.7 34.4 34.4 0 0 1-9.3 2.8 9.1 9.1 0 0 1-1.6-1.1l-1.6-1.2-1.7-.8a4.9 4.9 0 0 0-2.1 0 14.3 14.3 0 0 0-.9-4.2 16.8 16.8 0 0 0-2.1-3.6 7 7 0 0 1 .5-3.5l1.4-3.3a30.5 30.5 0 0 0 1.3-3.2 7.2 7.2 0 0 0-.2-3.8 2.9 2.9 0 0 0 1.4-1.5 4.9 4.9 0 0 0 .6-1.7 8.5 8.5 0 0 1 .4-1.7 3 3 0 0 1 1.5-1.4c-.5-1.7-.5-2.9.3-3.7a10 10 0 0 1 2.7-2.2l3-2.1a3.5 3.5 0 0 0 1-3.5 7.2 7.2 0 0 1 1.5-1.1l1.7-.8 1.5-.8a5.3 5.3 0 0 0 1.4-1.2 1.3 1.3 0 0 1-.7-1 2.7 2.7 0 0 1 .3-1.2l.5-1.2a2 2 0 0 0-.1-1.3 7.9 7.9 0 0 0 5.1-.7l4.1-2.5a13.3 13.3 0 0 1 4-1.9c1.3-.3 2.9.1 4.7 1.3a12.8 12.8 0 0 0 .7 2.2l.9 2.9.9 2.9a8 8 0 0 1 .5 2v8.5a17.8 17.8 0 0 0 6.2 2.2 10.1 10.1 0 0 0 6.2-1.4c.8.7 1.5.9 2.2.5a10.6 10.6 0 0 0 2.1-1.1 5.2 5.2 0 0 1 2.1-.7q1.1 0 2.1 1.8a7.6 7.6 0 0 1 3.1-1.8l3.3-.4 3.3-.3a6.8 6.8 0 0 0 3.2-1.3zm-41.5 10.3a7.3 7.3 0 0 1-3.7-1l-3.1-2.3a24.3 24.3 0 0 0-3.2-2.4 7.3 7.3 0 0 0-3.9-1.3 25.5 25.5 0 0 1-2.3 2.4 15.8 15.8 0 0 0-2.2 2.3 7.9 7.9 0 0 0-1.3 2.8 5.3 5.3 0 0 0 .4 3.4 6.4 6.4 0 0 0-3.3 3.4 21.6 21.6 0 0 0-1.1 4.7c-.1 1.7-.3 3.4-.4 5.1a13.7 13.7 0 0 1-1.4 4.6l2.3-1.6a1.3 1.3 0 0 1 .7.6 1.1 1.1 0 0 1 .1 1 6.7 6.7 0 0 1 1.9-1.4l2.1-.7 2.3-.5 2.2-.6c1.7 1 3 1.2 3.8.6a6.2 6.2 0 0 0 1.9-2.5c.5-1.2 1-2.4 1.6-3.6a4.1 4.1 0 0 1 2.8-2.3l-.8-.7a49.8 49.8 0 0 0 3.3-4.7 9.3 9.3 0 0 0 1.3-5.3zm.7-8.5a10.6 10.6 0 0 1 .6-3.4c.3-1.2.6-2.4.8-3.6a9.1 9.1 0 0 0 0-3.3 5.3 5.3 0 0 0-2.1-2.9 5.2 5.2 0 0 0-1.9 1.7l-1.5 2.3a7.7 7.7 0 0 1-1.8 1.8 3.1 3.1 0 0 1-2.6.5 2.3 2.3 0 0 0 0 2 6.4 6.4 0 0 0 1.3 1.5l1.4 1.5a1.8 1.8 0 0 1 .5 1.9l1.2.6 1.5.3a4.1 4.1 0 0 0 1.6-.2 1.5 1.5 0 0 0 1-.7z"/></g></svg>