<svg xmlns="http://www.w3.org/2000/svg" width="30" height="30"><path d="M28.4 6.7a2.3 2.3 0 0 0-2-1.9 96.6 96.6 0 0 0-22.8 0 2.3 2.3 0 0 0-2 1.9 57.7 57.7 0 0 0 0 16.6 2.3 2.3 0 0 0 2 1.9 87.2 87.2 0 0 0 11.4.7h4.2a.8.8 0 0 0 .7-.8.5.5 0 0 0-.3-.5.4.4 0 0 0-.5-.2 97.9 97.9 0 0 1-15.3-.6.7.7 0 0 1-.7-.6A55 55 0 0 1 3.1 7a.7.7 0 0 1 .7-.6 93.3 93.3 0 0 1 22.4 0 .7.7 0 0 1 .7.6 55 55 0 0 1 0 16.2.7.7 0 0 1-.7.6l-3.6.4a.7.7 0 0 0-.7.7.9.9 0 0 0 .3.6l.5.2 3.7-.4a2.3 2.3 0 0 0 2-1.9 57.7 57.7 0 0 0 0-16.7zm-6.8 7.6L11.5 9h-.8a1 1 0 0 0-.4.7v10.6a1 1 0 0 0 .4.7h.8l10.1-5.3a1 1 0 0 0 .4-.7 1 1 0 0 0-.4-.7zm-9.7 4.8v-8.2l7.7 4.1z" fill="#ff8837"/></svg>