<svg xmlns="http://www.w3.org/2000/svg" width="30" height="30"><path d="M23.1 1H6.9A6 6 0 0 0 1 6.9v16.2A6 6 0 0 0 6.9 29h16.2a6 6 0 0 0 5.9-5.9V6.9A6 6 0 0 0 23.1 1zm4.5 22.1a4.5 4.5 0 0 1-4.5 4.5H6.9a4.5 4.5 0 0 1-4.5-4.5V6.9a4.5 4.5 0 0 1 4.5-4.5h16.2a4.5 4.5 0 0 1 4.5 4.5zM15.3 7.7a7.2 7.2 0 0 0-7.6 7.6 7.2 7.2 0 0 0 6.9 7 7.1 7.1 0 0 0 4.3-1.1c.4-.2.4-.7.1-1.1a.9.9 0 0 0-.9-.1 5.7 5.7 0 0 1-3.2.9 5.9 5.9 0 1 1 6-6.4 5.4 5.4 0 0 1-.7 3.3.7.7 0 0 0 .2.8.7.7 0 0 0 1.1-.1 7.4 7.4 0 0 0 .8-3.9 7.2 7.2 0 0 0-7-6.9zm7.3-3.1a1.8 1.8 0 0 0-1.9 1.9 1.9 1.9 0 0 0 1.9 1.9 2 2 0 0 0 1.9-1.9 1.9 1.9 0 0 0-1.9-1.9zm0 2.6a.8.8 0 0 1-.8-.7.8.8 0 0 1 .8-.8.7.7 0 0 1 .7.8.7.7 0 0 1-.7.7z" fill="#ff8837"/></svg>