<svg xmlns="http://www.w3.org/2000/svg" width="30" height="30"><path d="M28.8 6.2a.8.8 0 0 0-.8 0l-1.1.4a6.5 6.5 0 0 0 .9-1.6 1.1 1.1 0 0 0-.1-.8.9.9 0 0 0-.9-.1 9.1 9.1 0 0 1-3.1 1.2 6.7 6.7 0 0 0-4.6-1.8 6.8 6.8 0 0 0-6.8 6.2l-2.5-.6a16.8 16.8 0 0 1-6.5-4.3c-.1-.2-.2-.3-.4-.3a.7.7 0 0 0-.7.4 6.7 6.7 0 0 0-.6 2.8 6.4 6.4 0 0 0 1.1 3.6l-.6.3a.5.5 0 0 0-.2.4v.2a6.2 6.2 0 0 0 2.2 4.6l-.2.2a.4.4 0 0 0 0 .5 6.1 6.1 0 0 0 3.8 4A10.3 10.3 0 0 1 2.2 23h-.5a.7.7 0 0 0-.7.6.8.8 0 0 0 .4.7 16.5 16.5 0 0 0 8.2 2.2 15.9 15.9 0 0 0 9.5-3.1.6.6 0 0 0 .1-1 .7.7 0 0 0-.9-.1 14.7 14.7 0 0 1-8.7 2.9 16.1 16.1 0 0 1-5.3-1 12 12 0 0 0 5.6-2.6.5.5 0 0 0 .2-.6q-.2-.6-.6-.6a4.5 4.5 0 0 1-3.9-2.3l1.1-.2a.6.6 0 0 0 .5-.6c.1-.3-.2-.6-.5-.7a4.4 4.4 0 0 1-3.3-3.7 3.9 3.9 0 0 0 1.5.2.7.7 0 0 0 .7-.6.9.9 0 0 0-.3-.7 4.7 4.7 0 0 1-2.4-4.1 5.1 5.1 0 0 1 .2-1.3 15.2 15.2 0 0 0 6.3 3.9 16 16 0 0 0 3.2.8h.3a.8.8 0 0 0 .7-.5v-.2a5.5 5.5 0 0 1 5.5-5.5 5.2 5.2 0 0 1 3.8 1.7l.6.2 2-.5a2.7 2.7 0 0 1-1.2.9.8.8 0 0 0-.3.8.6.6 0 0 0 .7.4l1.7-.2-1.6 1.3a.7.7 0 0 0-.3.6v.2a15 15 0 0 1-3.8 9.9.7.7 0 0 0 0 1 .8.8 0 0 0 1-.1 16.1 16.1 0 0 0 4.2-10.7 11.8 11.8 0 0 0 3-3.3.8.8 0 0 0-.1-.9z" fill="#ff8837"/></svg>