<svg xmlns="http://www.w3.org/2000/svg" width="30" height="30"><path d="M26.7 1H3.3A2.4 2.4 0 0 0 1 3.3v23.4A2.4 2.4 0 0 0 3.3 29H12c2 0 1.9-1.5 1.9-1.5v-9.2a.9.9 0 0 0-.8-.8H9.9v-2.2h3.2a.9.9 0 0 0 .8-.8v-2.6a5.7 5.7 0 0 1 .1-1.3 4.5 4.5 0 0 1 4.5-3.3h1.6v2.2h-1.2a2.9 2.9 0 0 0-2.8 2.8v2.2a.9.9 0 0 0 .8.8h3.2v2.2h-3.2a.9.9 0 0 0-.8.8v3.4a.8.8 0 0 0 .8.7.7.7 0 0 0 .7-.7V19h2.6a1.3 1.3 0 0 0 1.4-1.3v-2.6a1.3 1.3 0 0 0-1.4-1.3h-2.6v-1.5a1.3 1.3 0 0 1 1.3-1.3h1.3a1.3 1.3 0 0 0 1.4-1.3V7.1a1.3 1.3 0 0 0-1.4-1.3h-1.7a6.1 6.1 0 0 0-4.1 1.5 5 5 0 0 0-1.5 2.1 6.4 6.4 0 0 0-.5 2.4v1.9H9.8A1.3 1.3 0 0 0 8.4 15v2.6A1.3 1.3 0 0 0 9.8 19h2.6v8.5H3.3a.9.9 0 0 1-.8-.8V3.3a.9.9 0 0 1 .8-.8h23.4a.9.9 0 0 1 .8.8v23.4a.9.9 0 0 1-.8.8h-9.1v-2.8a.8.8 0 0 0-.7-.8.9.9 0 0 0-.8.8v2.8s.1 1.5 1.5 1.5h9.1a2.4 2.4 0 0 0 2.3-2.3V3.3A2.4 2.4 0 0 0 26.7 1z" fill="#ff8837"/></svg>