<?xml version="1.0" encoding="utf-8"?>
<!-- Generator: Adobe Illustrator 22.1.0, SVG Export Plug-In . SVG Version: 6.00 Build 0)  -->
<svg version="1.1" id="Capa_1" xmlns="http://www.w3.org/2000/svg" xmlns:xlink="http://www.w3.org/1999/xlink" x="0px" y="0px"
	 viewBox="0 0 30 30" style="enable-background:new 0 0 30 30;" xml:space="preserve">
<style type="text/css">
	.st0{fill:#8B8F93;}
</style>
<path class="st0" d="M28.8,6.2c-0.2-0.1-0.6-0.1-0.8,0l-1.1,0.4c0.4-0.5,0.7-1,0.9-1.6c0.1-0.3,0-0.6-0.1-0.8
	C27.4,4,27.1,4,26.8,4.1c-1,0.6-2,1-3.1,1.2c-1.2-1.2-2.9-1.8-4.6-1.8c-3.5,0-6.5,2.7-6.8,6.2L9.8,9.1C7.3,8.2,5.1,6.7,3.3,4.8
	C3.2,4.6,3.1,4.5,2.9,4.5c-0.3,0-0.6,0.1-0.7,0.4C1.8,5.8,1.6,6.7,1.6,7.7c0,1.3,0.4,2.5,1.1,3.6l-0.6,0.3C2,11.7,1.9,11.8,1.9,12
	v0.2c0,1.8,0.8,3.5,2.2,4.6L3.9,17c-0.1,0.1-0.1,0.4,0,0.5c0.6,1.9,2,3.3,3.8,4C6,22.5,4.1,23,2.2,23H1.7c-0.4,0-0.6,0.3-0.7,0.6
	c0,0.3,0.2,0.6,0.4,0.7c2.5,1.4,5.3,2.2,8.2,2.2c3.4,0,6.7-1.1,9.5-3.1c0.3-0.2,0.4-0.5,0.3-0.8c0-0.1-0.1-0.1-0.2-0.2
	c-0.2-0.2-0.6-0.3-0.9-0.1c-2.5,1.9-5.6,2.9-8.7,2.9c-1.8,0-3.6-0.4-5.3-1c2.1-0.4,4-1.3,5.6-2.6c0.2-0.1,0.3-0.4,0.2-0.6
	c-0.1-0.4-0.3-0.6-0.6-0.6c-1.6,0-3.1-0.9-3.9-2.3l1.1-0.2c0.3,0,0.5-0.3,0.5-0.6C7.3,17,7,16.7,6.7,16.6c-1.8-0.4-3.1-1.9-3.3-3.7
	c0.5,0.2,1,0.2,1.5,0.2c0.4,0,0.6-0.3,0.7-0.6c0-0.3-0.1-0.5-0.3-0.7C3.8,11,2.9,9.4,2.9,7.7c0-0.4,0.1-0.9,0.2-1.3
	C4.8,8.2,7,9.5,9.4,10.3c1,0.4,2.1,0.6,3.2,0.8h0.3c0.3,0,0.6-0.2,0.7-0.5v-0.2c0-3,2.5-5.5,5.5-5.5c1.4,0,2.8,0.6,3.8,1.7l0.6,0.2
	l2-0.5c-0.3,0.4-0.7,0.7-1.2,0.9C24.1,7.4,23.9,7.7,24,8c0.1,0.3,0.4,0.5,0.7,0.4l1.7-0.2l-1.6,1.3c-0.2,0.1-0.3,0.4-0.3,0.6v0.2
	c0,3.7-1.4,7.2-3.8,9.9c-0.3,0.3-0.3,0.7,0,1c0,0,0,0,0,0c0.3,0.2,0.7,0.2,1-0.1c2.7-2.9,4.2-6.7,4.2-10.7c1.2-0.9,2.2-2,3-3.3
	C29.1,6.8,29,6.5,28.8,6.2z"/>
</svg>
