<?xml version="1.0" encoding="utf-8"?>
<!-- Generator: Adobe Illustrator 22.1.0, SVG Export Plug-In . SVG Version: 6.00 Build 0)  -->
<svg version="1.1" id="Capa_1" xmlns="http://www.w3.org/2000/svg" xmlns:xlink="http://www.w3.org/1999/xlink" x="0px" y="0px"
	 viewBox="0 0 30 30" style="enable-background:new 0 0 30 30;" xml:space="preserve">
<style type="text/css">
	.st0{fill:#8B8F93;}
</style>
<path class="st0" d="M23.1,1H6.9C3.7,1.1,1.1,3.7,1,6.9v16.2c0.1,3.2,2.7,5.8,5.9,5.9h16.2c3.2-0.1,5.8-2.7,5.9-5.9V6.9
	C28.9,3.7,26.3,1.1,23.1,1z M27.6,23.1c0,2.5-2,4.5-4.5,4.5H6.9c-2.5,0-4.5-2-4.5-4.5V6.9c0-2.5,2-4.5,4.5-4.5h16.2
	c2.5,0,4.5,2,4.5,4.5V23.1z M15.3,7.7c-4-0.2-7.4,2.8-7.6,6.8c0,0.3,0,0.5,0,0.8c0.1,3.8,3.1,6.8,6.9,7c1.5,0.1,3-0.3,4.3-1.1
	c0.4-0.2,0.4-0.7,0.1-1.1c-0.3-0.2-0.6-0.2-0.9-0.1c-1,0.6-2.1,0.9-3.2,0.9c-3.3-0.1-5.8-2.8-5.8-6c0.1-3.3,2.8-5.8,6-5.8
	c3,0.1,5.5,2.4,5.8,5.4c0.1,1.1-0.1,2.3-0.7,3.3c-0.1,0.3,0,0.6,0.2,0.8c0.3,0.3,0.7,0.3,1,0c0,0,0.1-0.1,0.1-0.1
	c0.6-1.2,0.9-2.6,0.8-3.9C22.1,10.8,19.1,7.8,15.3,7.7z M22.6,4.6c-1-0.1-1.8,0.7-1.9,1.7c0,0.1,0,0.1,0,0.2c0,1,0.9,1.9,1.9,1.9
	c1-0.1,1.8-0.9,1.9-1.9C24.5,5.5,23.6,4.6,22.6,4.6z M22.6,7.2c-0.4,0-0.7-0.3-0.8-0.7c0-0.4,0.4-0.8,0.8-0.8c0.4,0,0.7,0.3,0.7,0.7
	c0,0,0,0.1,0,0.1C23.3,6.9,23,7.2,22.6,7.2L22.6,7.2z"/>
</svg>
