<?xml version="1.0" encoding="utf-8"?>
<!-- Generator: Adobe Illustrator 22.1.0, SVG Export Plug-In . SVG Version: 6.00 Build 0)  -->
<svg version="1.1" id="Capa_1" xmlns="http://www.w3.org/2000/svg" xmlns:xlink="http://www.w3.org/1999/xlink" x="0px" y="0px"
	 viewBox="0 0 200 200" style="enable-background:new 0 0 200 200;" xml:space="preserve">
<style type="text/css">
	.st0{fill:#1A212B;}
</style>
<path class="st0" d="M186.4,68c-5.3,0-9.6-4.3-9.6-9.6c0-1.8-1.4-3.2-3.2-3.2s-3.2,1.4-3.2,3.2c0,5.3-4.3,9.6-9.6,9.6
	c-1.8,0-3.2,1.4-3.2,3.2c0,1.8,1.4,3.2,3.2,3.2c5.3,0,9.6,4.3,9.6,9.6c0,1.8,1.4,3.2,3.2,3.2s3.2-1.4,3.2-3.2c0-5.3,4.3-9.6,9.6-9.6
	c1.8,0,3.2-1.4,3.2-3.2C189.6,69.4,188.2,68,186.4,68z M173.6,74.5c-0.9-1.2-2-2.4-3.3-3.3c1.2-0.9,2.4-2,3.3-3.3
	c0.9,1.2,2,2.4,3.3,3.3C175.7,72.1,174.5,73.2,173.6,74.5z M42.4,103.2c0-1.8-1.4-3.2-3.2-3.2c-5.3,0-9.6-4.3-9.6-9.6
	c0-1.8-1.4-3.2-3.2-3.2c-1.8,0-3.2,1.4-3.2,3.2c0,5.3-4.3,9.6-9.6,9.6c-1.8,0-3.2,1.4-3.2,3.2c0,1.8,1.4,3.2,3.2,3.2
	c5.3,0,9.6,4.3,9.6,9.6c0,1.8,1.4,3.2,3.2,3.2c1.8,0,3.2-1.4,3.2-3.2c0-5.3,4.3-9.6,9.6-9.6C41,106.4,42.4,105,42.4,103.2z
	 M26.4,106.5c-0.9-1.2-2-2.4-3.3-3.3c1.2-0.9,2.4-2,3.3-3.3c0.9,1.2,2,2.4,3.3,3.3C28.4,104.1,27.3,105.2,26.4,106.5z M156.8,138.5
	c-1.7-0.4-3.4,0.6-3.9,2.3c-0.4,1.6-0.9,3.2-1.5,4.8s0.2,3.5,1.9,4.1c1.6,0.6,3.5-0.2,4.1-1.9c0.6-1.8,1.2-3.6,1.7-5.4
	C159.5,140.7,158.5,139,156.8,138.5L156.8,138.5z M106.4,74.4c-1.8,0-3.2,1.4-3.2,3.2c0,1.8,1.4,3.2,3.2,3.2c26.5,0,48,21.5,48,48
	c0,1.8,1.4,3.2,3.2,3.2s3.2-1.4,3.2-3.2C160.8,98.8,136.4,74.4,106.4,74.4L106.4,74.4z M55.5,122.4h0.6c1.5,0,2.8-1.1,3.2-2.6
	c0.2-1,0.4-2,0.7-3c0.4-1.7-0.6-3.4-2.3-3.9c-1.7-0.4-3.4,0.6-3.9,2.3c-0.3,1.1-0.6,2.2-0.8,3.4C52.6,120.3,53.8,122,55.5,122.4z
	 M106.4,176.8c-26.5,0-48-21.5-48-48c0-1.8-1.4-3.2-3.2-3.2S52,127,52,128.8c0,30,24.4,54.4,54.4,54.4c1.8,0,3.2-1.4,3.2-3.2
	S108.2,176.8,106.4,176.8L106.4,176.8z M126.9,64.8l55.4-55.4c0.9-0.9,1.2-2.3,0.7-3.5s-1.7-2-3-2h-32c-0.8,0-1.7,0.3-2.3,0.9
	l-24.6,24.7H91.7L67.1,4.9C66.5,4.3,65.6,4,64.8,4h-32c-1.3,0-2.5,0.8-3,2s-0.2,2.6,0.7,3.5l55.4,55.4c-24,7.6-41.7,28-45.9,52.9
	c-4.2,24.8,5.9,49.9,26.1,65c20.2,15.1,47.1,17.6,69.7,6.5c3.5-1.9,7-4,10.3-6.2c0.4-0.2,0.8-0.5,1.2-0.8
	c19.9-15.2,29.7-40.1,25.4-64.8C168.4,92.7,150.8,72.4,126.9,64.8z M125.6,34.1l23.7-23.7h7l-0.9,0.9l4.5,4.5l5.4-5.4h7l-46.7,46.7
	C125.6,57.1,125.6,34.1,125.6,34.1z M93.6,36h25.6v26.8c-8.4-1.7-17.2-1.7-25.6,0C93.6,62.8,93.6,36,93.6,36z M40.5,10.4h7l5.5,5.5
	l4.5-4.5l-0.9-0.9h7l23.7,23.7v23L40.5,10.4z M145,175.7l-10.8-10.8c-1.2-1.2-3.3-1.2-4.5,0s-1.2,3.2,0,4.5l10.1,10.1
	c-1.4,0.9-2.8,1.8-4.3,2.6l-7.6-7.6c-1.2-1.2-3.3-1.2-4.5,0s-1.2,3.2,0,4.5l6,6c-22.7,9.3-48.8,4-66.1-13.4s-22.4-43.5-13-66.2
	S81.8,68,106.4,68c25.7,0,48.6,16.1,57.2,40.2C172.3,132.4,164.9,159.4,145,175.7z M106.4,55.2h6.4V42.4H100v6.4h6.4
	C106.4,48.8,106.4,55.2,106.4,55.2z M72.1,35.1l6.4,6.4L83,37l-6.4-6.4L72.1,35.1z M59.3,22.3l6.4,6.4l4.5-4.5l-6.4-6.4
	C63.8,17.8,59.3,22.3,59.3,22.3z M129.7,36.9l4.5,4.5l6.4-6.4l-4.5-4.5L129.7,36.9z M142.5,24.1l4.5,4.5l6.4-6.4l-4.5-4.5
	L142.5,24.1z"/>
</svg>
