<svg id="Capa_1" xmlns="http://www.w3.org/2000/svg" viewBox="0 0 50 50"><style>.st0{fill:#1a212b}</style><path class="st0" d="M43.1 11.7c-3.6-4.8-8.8-8-14.7-8.9-5.9-.9-11.9.5-16.7 4.1-4.8 3.6-8 8.8-8.9 14.7-.8 5.1.2 10.3 2.8 14.7.4.7.8 1.3 1.3 2 3.2 4.3 7.8 7.4 13 8.6.2.1.5.1.7.2h.2c1.4.3 2.9.4 4.3.4s2.9-.1 4.3-.4h.1c2-.4 3.9-1 5.7-2 .4-.2.6-.7.4-1.2-.2-.4-.7-.6-1.2-.4-1.1.5-2.2 1-3.3 1.3l3.6-6.3 7.1-1.3c-.6.9-1.3 1.7-2.1 2.4-.3.3-.3.9 0 1.2.3.3.9.3 1.2 0 1.3-1.3 2.5-2.8 3.5-4.5 1.6-2.7 2.6-5.6 2.9-8.7v-.1c0-.3.1-.5.1-.8.5-5.3-1.1-10.6-4.3-15zm-15-7.2c4.6.7 8.7 2.8 11.8 6.1l-1.1 9.2-6.8 1.6-6.1-4.4v-6.6l1.4-1c.4-.3.5-.8.2-1.2-.3-.4-.8-.5-1.2-.2l-1.3.9-6.1-3.7c3-.9 6.1-1.2 9.2-.7zm-8.8 18.2l2.9-2.1 2.9-2.1 5.7 4.2-2.2 6.7h-7.1l-2.2-6.7zM12.7 8.3c1.3-.9 2.7-1.7 4.1-2.3l7.3 4.5V17L18 21.4l-6.9-1.6L9.7 11c.9-1 1.9-1.9 3-2.7zM4.5 21.9c.5-3.3 1.8-6.4 3.7-9l1.2 7.4-5.1 5.2c-.1-1.3 0-2.4.2-3.6zm-.1 5.9l6.2-6.2 6.9 1.6 2.3 7.1-4.3 6.7-8.6-1.7c-1.3-2.5-2.1-5-2.5-7.5zm3.9 9.5c0-.1-.1-.1 0 0l7.1 1.3 3.7 6.3C14.8 43.6 11 41 8.3 37.3zm20.3 8.1c-2.4.4-4.9.4-7.3 0L17 37.8l4.3-6.6h7.4l4.3 6.6-4.4 7.6zm14.5-10.2l-8.6 1.6-4.3-6.7 2.3-7.1 6.9-1.6 6.1 6.3c-.3 2.7-1.2 5.2-2.4 7.5zm2.6-9.7l-5.1-5.2.9-7.8c.1.1.2.2.2.3 2.8 3.7 4.1 8.2 4 12.7z"/><path class="st0" d="M29.8 6.3c-.1-.2-.4-.3-.6-.3-.2 0-.5.1-.6.3s-.3.4-.3.6c0 .2.1.5.3.6.2.2.4.3.6.3.2 0 .5-.1.6-.3.2-.2.3-.4.3-.6 0-.2-.1-.4-.3-.6zM38.3 41.8c-.2-.2-.4-.3-.6-.3-.2 0-.5.1-.6.3s-.3.4-.3.6c0 .2.1.5.3.6.2.2.4.3.6.3.2 0 .5-.1.6-.3.2-.2.3-.4.3-.6 0-.2-.1-.4-.3-.6z"/></svg>