<?xml version="1.0" encoding="utf-8"?>
<!-- Generator: Adobe Illustrator 22.1.0, SVG Export Plug-In . SVG Version: 6.00 Build 0)  -->
<svg version="1.1" id="Capa_1" xmlns="http://www.w3.org/2000/svg" xmlns:xlink="http://www.w3.org/1999/xlink" x="0px" y="0px"
	 viewBox="0 0 200 200" style="enable-background:new 0 0 200 200;" xml:space="preserve">
<style type="text/css">
	.st0{fill:#1A212B;}
</style>
<g>
	<path class="st0" d="M195.5,182.5c0.1-0.1,0-0.3,0.1-0.4c0.2-0.5,0.3-1.1,0.5-1.5c0.1-0.1,0-0.2,0-0.3c0.1-0.5,0.2-1.1,0.3-1.7
		l0.1-0.1c0.1-0.1,0-0.3,0-0.3c-0.1-0.3,0-0.6,0.1-0.9c0-0.3,0-0.6,0-0.9l0-0.2l-0.1-0.3c0-0.3-0.1-0.5-0.1-0.7
		c-0.1-0.3-0.1-0.5-0.2-0.7c0-0.2-0.2-0.4-0.2-0.7l0-0.2c-0.2-0.4-0.3-0.8-0.4-1.1c-0.1-0.2-0.3-0.5-0.3-0.8l0-0.2
		c0-0.2-0.1-0.2-0.3-0.5l-0.4-0.7c-0.4-0.6-0.8-1.3-1.3-1.8l-21.8-26.6l-1.2-2.6c2-0.3,3.4-2.4,3.1-4.4s-2.4-3.4-4.4-3.1l-2.1,0.4
		l-3.9-8c1.7-0.5,2.8-2.4,2.5-4.2c-0.3-2-2.4-3.4-4.4-3.1l-1.6,0.3l-4.1-8.2c1.6-0.9,2.4-2.8,1.8-4.5c-0.6-1.8-2.4-2.8-4.2-2.4
		l-1,0.2l-4.1-8.4c1.1-0.8,1.7-2.2,1.4-3.6c-0.3-2-2.4-3.4-4.4-3.1l-0.3,0.1l-4.3-8.7c1.1-1.1,1.4-2.8,0.6-4.2s-2.2-2.3-3.8-2.1
		l-7.5-15.1c-0.3-0.5-0.7-1.1-1.2-1.4l-6.2-4.4c-0.6-0.4-1.4-0.7-2.1-0.6l-43.4-0.9l-5.7-33.6c-0.2-1-0.7-1.8-1.5-2.4l-6.3-4.4
		c-1.5-1-3.4-0.9-4.7,0.3L9.3,53.8l-1,1.4c-0.1,0.2-0.2,0.5-0.2,0.7L3.5,75.7c-0.3,1.5,0.3,3.1,1.5,4l4.2,2.9l-0.9,6
		c-0.2,1.5,0.3,2.8,1.5,3.6l6.2,4.4c1.2,0.8,2.7,0.9,3.9,0.2l5.4-2.9l8.6,6.1l-0.9,6c-0.2,1.5,0.3,2.8,1.5,3.6l6.2,4.4
		c1.2,0.8,2.7,0.9,3.9,0.2l5.4-2.9l39.5,27.8l-0.9,6c-0.2,1.5,0.3,2.8,1.5,3.6l6.2,4.4c1.2,0.8,2.7,0.9,3.9,0.2l5.4-2.9l8.6,6.1
		l-0.9,6c-0.2,1.5,0.3,2.8,1.5,3.6l6.2,4.4c1.2,0.8,2.7,0.9,3.9,0.2l5.8-3.1l21,9.6l-0.2,3.3c0,1.3,0.5,2.5,1.6,3.3l9.3,6.5
		c1.5,1.1,3.7,0.9,5.1-0.6l3.4-4l8.2,3.8c5,2.4,11,0.8,14.3-3.8l0.6-0.9C194.5,184.8,195.5,182.5,195.5,182.5L195.5,182.5z
		 M182.5,183l-49.9-22.7L11.4,75l2.9-11.9l31.6,22.3L50.4,97c0.2,0.7,0.8,1.3,1.4,1.7l83.8,59l48.2,25.8
		C183.3,183.3,182.9,183.2,182.5,183L182.5,183z M139.3,151.1L57,93.2l-4.6-11.6c-0.2-0.7-0.8-1.3-1.4-1.7L17.9,56.5l43.6-38.7
		l2.4,1.7L70,54.9c0.3,1.8,1.9,3.1,3.7,3.2l45,0.2l4.4,3.1l6,12l-13.5,2.3c-1.3,0.2-2.5,1.1-2.9,2.5c-0.5,1.3-0.2,2.8,0.7,3.8
		c0.9,1,2.2,1.6,3.5,1.3l15.8-2.7l3.9,8l-13,2.3c-1.3,0.2-2.5,1.1-2.9,2.5c-0.5,1.3-0.2,2.8,0.7,3.8c0.9,1,2.2,1.6,3.5,1.3l15.2-2.6
		l3.9,8l-12.4,2.1c-1.3,0.2-2.5,1.1-2.9,2.5c-0.5,1.3-0.2,2.8,0.7,3.8c0.9,1,2.2,1.6,3.5,1.3l14.7-2.5l3.9,8l-11.7,2
		c-1.3,0.2-2.5,1.1-2.9,2.5c-0.5,1.3-0.2,2.8,0.7,3.8c0.9,1,2.2,1.6,3.5,1.3l14-2.4l3.9,8L148,136c-1.3,0.2-2.5,1.1-2.9,2.5
		c-0.5,1.3-0.2,2.8,0.7,3.8c0.9,1,2.2,1.6,3.5,1.3l13.3-2.3l2.5,4.9c0.1,0.2,0.3,0.5,0.5,0.8l22,26.5c0.3,0.4,0.5,0.7,0.7,1.1
		l0.1,0.2l0,0.2c0.1,0.1,0.1,0.2,0.2,0.4c0,0.2,0.1,0.3,0.2,0.6l0.1,0.2l0,0.2l0.1,0.7l0,0.2l0.1,0.3c0,0.2,0.1,0.3,0,0.6
		L139.3,151.1L139.3,151.1z"/>
	<path d="M43.8,56.6c-0.2-1.3-0.9-2.4-1.9-3.1c-1-0.7-2.3-1-3.5-0.7c-1.3,0.1-2.4,0.9-3.1,1.9c-0.7,1-1,2.3-0.7,3.5
		c0.2,1.3,0.9,2.4,1.9,3.1c1,0.7,2.3,1,3.5,0.7c1.3-0.2,2.4-0.9,3.1-1.9C43.7,59.1,44,57.8,43.8,56.6z M56.1,65.2
		c-0.2-1.3-0.9-2.4-1.9-3.1c-1.1-0.7-2.3-1-3.5-0.7c-1.3,0.1-2.4,0.9-3.1,1.9c-0.7,1-1,2.3-0.7,3.5c0.2,1.3,0.9,2.4,1.9,3.1
		c1.1,0.7,2.3,1,3.5,0.7c1.3-0.2,2.4-0.9,3.1-1.9C56.1,67.8,56.4,66.6,56.1,65.2z M68.5,74c-0.3-1.2-1-2.3-2-3
		c-1.1-0.7-2.3-1-3.5-0.7c-1.2,0.3-2.4,0.9-3.1,1.9s-1,2.3-0.7,3.5c0.2,1.3,0.9,2.4,1.9,3.1c1.1,0.7,2.3,1,3.5,0.7
		c1.3-0.2,2.4-0.9,3.1-1.9C68.4,76.5,68.7,75.3,68.5,74z M80.9,82.7c-0.2-1.3-0.9-2.4-1.9-3.1c-1.1-0.7-2.3-1-3.5-0.7
		c-1.3,0.1-2.4,0.9-3.1,1.9c-0.7,1-1,2.3-0.7,3.5c0.2,1.3,0.9,2.4,1.9,3.1c1.1,0.7,2.3,1,3.5,0.7c1.3-0.2,2.4-0.9,3.1-1.9
		S81,83.9,80.9,82.7z"/>
</g>
</svg>
